<svg width="29" height="29" viewBox="0 0 29 29" fill="none" xmlns="http://www.w3.org/2000/svg">
<g clip-path="url(#clip0)">
<path d="M21.9172 22.2417C21.9295 22.2288 21.9435 22.2154 21.9557 22.202H21.9546C26.7147 17.3911 28.0082 11.4139 25.8712 7.21355C25.8736 7.21238 25.8753 7.21063 25.8782 7.20772C25.8782 7.20772 28.4903 4.4427 26.633 2.58651C24.7768 0.729155 22.1419 3.47199 22.1419 3.47199C22.1396 3.47433 22.1373 3.47666 22.1361 3.47841C17.9369 1.34321 11.9574 2.63496 7.14767 7.3945H7.1465C7.13424 7.40676 7.1214 7.4196 7.10739 7.43303C7.09513 7.44587 7.08171 7.45929 7.06887 7.47272C2.3099 12.2836 1.01758 18.2608 3.15278 22.4617C3.15161 22.4629 3.14927 22.4646 3.14869 22.467C3.14869 22.467 0.405269 25.1024 2.26204 26.958C4.11881 28.816 6.88383 26.2021 6.88383 26.2021C6.88558 26.2009 6.88617 26.1986 6.88908 26.198C11.09 28.3332 17.0678 27.0409 21.8775 22.2808L21.8781 22.2819C21.8909 22.2673 21.9038 22.2545 21.9172 22.2417Z" fill="#FFEB97"/>
<path d="M27.4587 1.76146C26.8131 1.1153 26.0081 0.774414 25.1302 0.774414C25.1192 0.774414 25.1075 0.774414 25.0964 0.774414C23.7912 0.787256 22.6104 1.54783 21.9245 2.09943C17.1988 0.170277 11.0396 1.90214 6.29929 6.59047C6.2917 6.59747 6.24617 6.64475 6.23859 6.65176C1.57419 11.3675 -0.156504 17.5268 1.7744 22.2525C1.21812 22.9448 0.462225 24.1221 0.449383 25.4226C0.440628 26.3133 0.781512 27.1299 1.43526 27.7837C2.16606 28.5145 2.99376 28.7912 3.81504 28.7912C5.02389 28.7912 6.21816 28.1923 7.06803 27.5642C11.7844 29.5091 17.939 27.796 22.6588 23.1491C22.6769 23.1327 22.695 23.1158 22.712 23.0983L21.9555 22.2852V22.2834L22.733 23.0779C22.7371 23.0738 22.7546 23.0563 22.7581 23.0528C22.7662 23.0446 22.8001 23.0101 22.8077 23.0014C22.8118 22.9973 22.8159 22.9926 22.8199 22.9885C27.4686 18.2675 29.1835 12.1129 27.238 7.39657C28.2928 5.96824 29.267 3.5692 27.4587 1.76146ZM24.8308 7.74329C26.8189 11.6512 25.3299 17.1316 21.1249 21.3816C21.1132 21.3939 21.1015 21.4061 21.0898 21.4184C21.0782 21.4289 21.0671 21.4394 21.056 21.4505C16.8083 25.6549 11.3273 27.1434 7.41767 25.157C7.17602 25.0339 6.89993 24.9988 6.63551 25.0584C6.43004 25.1039 6.23975 25.2055 6.08682 25.3491C6.08624 25.3496 6.08565 25.3502 6.08449 25.3508C6.06522 25.3689 4.10105 27.1457 3.08715 26.1318C2.87644 25.9211 2.78304 25.7104 2.78421 25.4489C2.78946 24.6288 3.65685 23.6009 3.95746 23.3084C3.9884 23.2786 4.01758 23.2471 4.04502 23.2144C4.34563 22.8584 4.4075 22.3529 4.19328 21.932C2.20692 18.0229 3.69596 12.5419 7.91499 8.27505C7.91966 8.27096 7.96402 8.22777 7.96869 8.22368C12.2169 4.01982 17.6973 2.53137 21.607 4.51831C22.078 4.75763 22.6442 4.64906 22.9945 4.26907C23.3675 3.88615 24.3563 3.11566 25.1192 3.10807C25.3684 3.09231 25.5949 3.19855 25.8073 3.4116C26.7617 4.36538 25.2429 6.16261 25.0491 6.38325C24.6971 6.73289 24.5956 7.28099 24.8308 7.74329Z" fill="#212121"/>
<path d="M18.4271 5.23613C14.005 4.93143 11.3071 8.02508 11.1944 8.157C10.7759 8.64731 10.8343 9.38453 11.3246 9.80305C11.5447 9.99042 11.8137 10.0826 12.0817 10.0826C12.4115 10.0826 12.7395 9.94372 12.9701 9.67288C12.9899 9.64895 15.0125 7.33806 18.2643 7.5657C18.9139 7.61473 19.4656 7.125 19.5099 6.48234C19.5554 5.83851 19.0704 5.28049 18.4271 5.23613Z" fill="#212121"/>
</g>
<defs>
<clipPath id="clip0">
<rect width="28.0168" height="28.0168" fill="white" transform="translate(0.449219 0.773438)"/>
</clipPath>
</defs>
</svg>
