<svg width="29" height="29" viewBox="0 0 29 29" fill="none" xmlns="http://www.w3.org/2000/svg">
<g clip-path="url(#clip0)">
<path d="M23.0099 24.6448C18.0918 29.0399 10.6295 28.5146 6.33049 23.4833C6.33049 23.4833 5.69444 22.8004 5.38777 21.8898C5.10382 21.061 5.08678 20.0454 6.05222 19.1815C7.73322 17.6757 10.5387 19.7244 10.5387 19.7244C13.0431 21.2828 15.8145 21.4112 18.3303 19.1582C20.8575 16.9052 21.1074 14.0802 19.9375 11.3252C19.9375 11.3252 19.0459 9.59751 19.2958 8.09162C19.3753 7.57798 19.5968 7.08769 20.0227 6.70246C22.0501 4.89305 24.1457 7.57214 24.1457 7.57214C28.4391 12.6093 27.9279 20.2497 23.0099 24.6448Z" fill="#FFEB97"/>
<path d="M18.3304 19.1581C15.8145 21.4111 13.0432 21.2827 10.5387 19.7243C10.5387 19.7243 7.73324 17.6756 6.05223 19.1815C5.08679 20.0453 5.10383 21.0609 5.38778 21.8898C4.68358 21.4403 3.74086 20.8975 3.13888 20.2613C3.13888 20.2613 1.04898 18.2242 2.71863 16.5724C4.10432 15.2066 6.6031 16.8468 6.6031 16.8468C8.2046 17.7339 9.89696 17.9791 11.4928 17.2728C12.1118 17.0043 12.7081 16.5899 13.2874 16.0238C15.3659 13.975 15.4624 11.5353 14.3437 9.21221C14.3437 9.21221 12.8387 6.60315 14.2301 5.2315C15.8997 3.58552 17.8136 5.80351 17.8136 5.80351C18.2963 6.31715 18.938 7.50202 19.2958 8.09154C19.0459 9.59744 19.9375 11.3251 19.9375 11.3251C21.1074 14.0801 20.8575 16.9051 18.3304 19.1581Z" fill="#9DC85C"/>
<path d="M11.0436 16.2012C9.86751 16.7218 8.56643 16.5986 7.17563 15.8381C5.9552 15.0519 3.51946 14.1676 1.93102 15.7319C1.27736 16.3792 0.933213 17.1759 0.936053 18.0368C0.9423 19.6816 2.2127 20.9675 2.32458 21.0755C2.93394 21.7199 3.77728 22.2475 4.4548 22.6718L4.47354 22.6841C4.86766 23.5859 5.4333 24.2093 5.47646 24.2542C8.03828 27.252 11.6365 28.7871 15.2513 28.7871C18.2736 28.7871 21.3068 27.7143 23.7551 25.5266C26.3652 23.1937 27.9314 19.9601 28.1654 16.4218C28.3988 12.8882 27.275 9.47249 25.0306 6.84125C24.8903 6.66206 23.6097 5.08554 21.8321 4.92153C20.9133 4.83631 20.0324 5.14858 19.272 5.82623C19.2703 5.82798 19.2692 5.82973 19.2675 5.8309C19.0625 5.51922 18.8563 5.23438 18.6627 5.02892C18.5303 4.87542 17.3207 3.52536 15.7186 3.45882C15.546 3.45124 15.3768 3.46233 15.2098 3.48451C14.7572 2.73156 13.9184 1.60564 12.6389 0.912224C12.0835 0.612212 11.3974 0.829925 11.1044 1.40076C10.8119 1.9716 11.0249 2.67727 11.5797 2.97787C12.3669 3.40454 12.9172 4.12714 13.2289 4.62969C11.9296 6.20796 12.6554 8.54969 13.3425 9.76549C14.3273 11.8376 14.0445 13.6592 12.5043 15.1768C12.0301 15.6426 11.5406 15.9852 11.0436 16.2012ZM3.20768 18.0281C3.20711 17.8804 3.24061 17.6767 3.50469 17.4152C3.66143 17.2611 3.88689 17.1998 4.14302 17.1998C4.7785 17.1998 5.59742 17.5763 5.98928 17.829C5.91602 17.867 5.84503 17.9137 5.77291 17.958C5.73258 17.9831 5.69113 18.0036 5.65137 18.0304C5.53325 18.111 5.41796 18.2003 5.30609 18.3007C5.17263 18.4203 5.05223 18.5458 4.94036 18.6748C4.90401 18.7168 4.87221 18.7606 4.83813 18.8038C4.76658 18.8937 4.69843 18.9847 4.63709 19.0787C4.60302 19.1307 4.57178 19.1826 4.54112 19.2357C4.48774 19.3274 4.43946 19.4202 4.39573 19.5147C4.37075 19.5684 4.34519 19.6209 4.32361 19.6758C4.31282 19.7021 4.29862 19.7272 4.28897 19.7534C4.15494 19.6431 4.03 19.5293 3.9204 19.4137C3.77956 19.2772 3.20995 18.5989 3.20768 18.0281ZM21.6243 7.24691C22.3194 7.30762 23.0594 8.05239 23.2917 8.3419C25.1658 10.5406 26.092 13.354 25.8995 16.2636C25.707 19.1779 24.4161 21.8419 22.2649 23.7645C17.8312 27.7277 11.0652 27.2561 7.15519 22.6806C7.15064 22.6753 6.67872 22.1541 6.45894 21.5027C6.24711 20.8846 6.34535 20.4673 6.79854 20.0622C6.85079 20.0155 6.90701 19.9758 6.96608 19.9426C6.98425 19.932 7.00469 19.9262 7.02343 19.9169C7.06603 19.8964 7.10805 19.8754 7.15348 19.8608C7.1779 19.8527 7.20346 19.8486 7.22845 19.8422C7.27047 19.8317 7.3125 19.82 7.35623 19.8136C7.38462 19.8095 7.41415 19.8083 7.44312 19.806C7.48571 19.8025 7.52773 19.7978 7.57146 19.7972C7.59077 19.7972 7.61122 19.799 7.63109 19.799C7.71174 19.8007 7.79351 19.8071 7.87643 19.8188C7.89858 19.8217 7.92129 19.8241 7.94344 19.8282C8.04112 19.8439 8.13937 19.8649 8.23762 19.8906C8.25409 19.8953 8.27055 19.9005 8.28759 19.9052C8.37278 19.9291 8.45796 19.956 8.54201 19.9857C8.56643 19.9945 8.59085 20.0027 8.61527 20.0114C8.71068 20.047 8.80495 20.0844 8.89639 20.1247C8.90945 20.1305 8.92194 20.1369 8.93557 20.1428C9.01622 20.1789 9.09402 20.2163 9.16898 20.2542C9.1917 20.2659 9.21498 20.277 9.23713 20.2887C9.31891 20.3313 9.39842 20.3739 9.47111 20.4153C9.47849 20.4194 9.48417 20.4235 9.49155 20.4276C9.55913 20.4667 9.62103 20.5041 9.67839 20.5402C9.69486 20.5507 9.71076 20.5607 9.7261 20.5706C9.78402 20.6079 9.83854 20.6447 9.88227 20.6757C9.90499 20.692 9.92827 20.7078 9.95212 20.7229C12.3316 22.2043 14.7452 22.4407 16.9425 21.452C16.9476 21.4496 16.9527 21.4479 16.9578 21.4455C17.0044 21.4245 17.0498 21.3983 17.0964 21.3761C17.7807 21.0486 18.4434 20.6068 19.0761 20.04C19.5855 19.5859 20.0228 19.1021 20.388 18.5931C20.3885 18.5919 20.3891 18.5913 20.3897 18.5902C20.6322 18.2516 20.8423 17.9026 21.02 17.5425C22.0019 15.5579 22.0019 13.2647 20.9797 10.8581C20.9689 10.833 20.9559 10.805 20.9439 10.7811C20.7469 10.393 20.2676 9.18882 20.4192 8.27477C20.4646 7.98177 20.581 7.75355 20.769 7.5837C21.1444 7.2475 21.4369 7.22999 21.6243 7.24691ZM14.0734 16.8666C16.3575 14.6153 16.8153 11.7127 15.3614 8.69502C15.3489 8.66876 15.3353 8.64308 15.3205 8.61739C15.1133 8.25785 14.4073 6.67491 15.0161 6.0743C15.2796 5.81456 15.479 5.78654 15.6227 5.7918C16.1667 5.81106 16.792 6.38423 16.9964 6.6142C17.2855 6.92239 17.75 7.71736 18.0573 8.24384C18.08 8.28295 18.1027 8.32205 18.1249 8.35941C18.1237 8.37633 18.1254 8.39326 18.1249 8.41019C18.1163 8.58529 18.1158 8.75981 18.1249 8.932C18.126 8.95418 18.1283 8.97577 18.1294 8.99854C18.1408 9.17714 18.1584 9.354 18.1845 9.5256C18.1851 9.53086 18.1862 9.53611 18.1873 9.54136C18.214 9.71763 18.2481 9.88865 18.2856 10.0538C18.2878 10.0632 18.2895 10.0725 18.2913 10.0813C18.3287 10.2418 18.3702 10.3947 18.4134 10.5406C18.4185 10.5575 18.423 10.5739 18.4281 10.5908C18.4707 10.7309 18.5144 10.8622 18.5582 10.9842C18.5638 11.0006 18.5695 11.0163 18.5752 11.0327C18.6184 11.1517 18.6604 11.2609 18.7007 11.3584C18.7058 11.3712 18.7109 11.3823 18.716 11.3951C18.7558 11.4909 18.7927 11.5761 18.8251 11.6461C18.8285 11.6531 18.8302 11.6572 18.833 11.6636C18.8648 11.7325 18.8927 11.7903 18.9114 11.8288C18.9784 11.9876 19.0392 12.1452 19.0937 12.3016C19.9177 14.6421 19.4112 16.6512 17.5842 18.2802C15.6414 20.0202 13.48 20.1778 11.1601 18.7478C11.1214 18.7203 11.0811 18.6917 11.0402 18.6637C11.3429 18.5843 11.6416 18.4798 11.9341 18.3497C12.6769 18.0269 13.3953 17.5296 14.0734 16.8666Z" fill="#212121"/>
<path d="M20.4914 20.2426C19.7662 21.5203 18.5719 22.017 17.9983 22.2557L17.9256 22.286C17.3446 22.5294 17.0658 23.2106 17.3026 23.8077C17.4821 24.2606 17.9063 24.535 18.3549 24.535C18.4975 24.535 18.6429 24.5069 18.7831 24.4486L18.8513 24.4206C19.5953 24.1112 21.3376 23.3863 22.4541 21.4199C22.7704 20.863 22.587 20.148 22.0452 19.8235C21.5028 19.4972 20.8077 19.6857 20.4914 20.2426Z" fill="#212121"/>
</g>
<defs>
<clipPath id="clip0">
<rect width="27.2596" height="28.0168" fill="white" transform="translate(0.936035 0.773254)"/>
</clipPath>
</defs>
</svg>
