<svg width="29" height="29" viewBox="0 0 29 29" fill="none" xmlns="http://www.w3.org/2000/svg">
<g clip-path="url(#clip0)">
<path d="M20.7127 7.56348C20.7127 9.11975 21.994 10.3824 23.576 10.3818C25.1608 10.3818 26.4433 9.12034 26.4439 7.56348L26.4468 4.8473L26.378 4.78134L23.573 4.74048C21.9899 4.74165 20.708 6.00312 20.708 7.55881" fill="#9DC85C"/>
<path d="M14.6951 10.0636C13.1709 11.5621 10.7005 11.5621 9.1781 10.0636C7.65743 8.5651 7.65743 6.13729 9.1781 4.63881C10.7005 3.14033 13.1709 3.14033 14.6951 4.63881C16.2181 6.13671 16.2169 8.56452 14.6951 10.0636Z" fill="#A07DFF"/>
<path d="M20.2106 15.488C18.687 16.9864 16.2166 16.9859 14.6954 15.488C13.1712 13.9895 13.1712 11.5617 14.6954 10.0632C16.2172 8.56471 18.687 8.56471 20.2106 10.0632C21.7319 11.5605 21.7319 13.9889 20.2106 15.488Z" fill="#A07DFF"/>
<path d="M11.8947 18.2417C10.3722 19.7396 7.90065 19.7396 6.37824 18.2417C4.85699 16.7439 4.85699 14.3143 6.37824 12.8164C7.90065 11.3185 10.3711 11.3185 11.8947 12.817C13.4177 14.3149 13.4177 16.7439 11.8947 18.2417Z" fill="#A07DFF"/>
<path d="M17.4112 23.6668C15.8876 25.1647 13.4177 25.1653 11.8947 23.6668C10.3723 22.1689 10.3723 19.7399 11.8947 18.242C13.4177 16.7441 15.8876 16.7441 17.41 18.242C18.9342 19.7405 18.9342 22.1689 17.4112 23.6668Z" fill="#A07DFF"/>
<path d="M9.01101 26.5023C7.48976 27.9996 5.01701 27.9996 3.49518 26.5023C1.97043 25.0044 1.97159 22.5754 3.49518 21.0775C5.01701 19.5796 7.48976 19.5796 9.01101 21.0775C10.534 22.5754 10.534 25.0044 9.01101 26.5023Z" fill="#A07DFF"/>
<path d="M25.7264 20.9125C24.2034 22.4104 21.7318 22.4104 20.2106 20.9125C18.687 19.4146 18.687 16.9862 20.2106 15.4878C21.7318 13.9893 24.2046 13.9893 25.7264 15.4878C27.25 16.9862 27.25 19.4152 25.7264 20.9125Z" fill="#A07DFF"/>
<path d="M6.25325 28.7905C7.54917 28.7905 8.84392 28.3054 9.83046 27.3347C10.5835 26.5945 11.0663 25.6605 11.2425 24.6471C12.2057 25.5145 13.4275 25.9541 14.6528 25.9541C15.9481 25.9541 17.2435 25.469 18.23 24.4994C18.9492 23.7919 19.4261 22.9099 19.6217 21.949C20.5749 22.7797 21.7698 23.2006 22.9689 23.2006C24.2642 23.2006 25.5595 22.7149 26.5461 21.7447C27.5069 20.8002 28.037 19.541 28.037 18.2013C28.037 16.8611 27.5075 15.6019 26.5455 14.6562C25.4393 13.5676 23.9449 13.0895 22.4972 13.2214C22.5106 13.0737 22.5194 12.9249 22.5194 12.7742C22.5194 12.2833 22.4464 11.8035 22.3092 11.3458C22.7126 11.4777 23.1382 11.5495 23.5754 11.5495C23.576 11.5495 23.576 11.5495 23.5765 11.5495C23.5765 11.5495 23.5765 11.5495 23.5771 11.5495C25.8012 11.5495 27.6114 9.76153 27.612 7.56488L27.6149 4.8487C27.6155 4.53056 27.4853 4.22526 27.2553 4.00461L27.1864 3.93864C26.9734 3.73433 26.6908 3.61875 26.396 3.61408L23.5736 3.57322C22.3676 3.57438 21.2859 4.10384 20.5463 4.93627C20.7477 4.12544 21.1663 3.37941 21.7827 2.77348C22.2427 2.32166 22.2485 1.58205 21.7961 1.12264C21.3437 0.66265 20.6053 0.656812 20.1453 1.10922C18.8079 2.4244 18.0712 4.17506 18.0712 6.0378C18.0712 6.66007 18.1605 7.26776 18.3199 7.85325C17.878 7.77795 17.4279 7.75752 16.982 7.79838C16.9954 7.65011 17.0041 7.50067 17.0041 7.34948C17.0036 6.01036 16.4741 4.75239 15.5132 3.8073C13.5396 1.86751 10.3296 1.86751 8.35825 3.80788C7.39798 4.75355 6.86911 6.01211 6.86911 7.35181C6.86911 8.57243 7.31217 9.723 8.11657 10.6342C7.17849 10.8228 6.28419 11.2717 5.55801 11.9862C4.59716 12.9324 4.06828 14.191 4.06828 15.5313C4.06828 16.7776 4.5312 17.9503 5.36887 18.8697C4.38234 19.0408 3.43667 19.4973 2.67605 20.2462C1.71345 21.1919 1.18399 22.4516 1.18457 23.7925C1.18457 25.1322 1.71461 26.3907 2.67663 27.3352C3.66258 28.3054 4.95792 28.7905 6.25325 28.7905ZM16.5926 22.8346C15.522 23.8865 13.783 23.8865 12.713 22.8346C12.2016 22.3314 11.9203 21.6636 11.9203 20.9543C11.9203 20.2451 12.2016 19.5772 12.713 19.0746C13.2477 18.5493 13.95 18.286 14.6522 18.286C15.3545 18.286 16.0561 18.5493 16.5908 19.0752C17.1034 19.5784 17.3853 20.2462 17.3853 20.9555C17.3859 21.6641 17.104 22.3314 16.5926 22.8346ZM22.9677 15.5307C23.6699 15.5307 24.3728 15.794 24.9075 16.3211C25.42 16.8243 25.702 17.4921 25.702 18.2013C25.702 18.91 25.42 19.5772 24.9081 20.0804C23.8375 21.1329 22.0979 21.1329 21.0291 20.0804C20.5171 19.5772 20.2352 18.91 20.2352 18.2013C20.2352 17.4927 20.5171 16.8255 21.0285 16.3217L21.0291 16.3211L21.0297 16.3205C21.5638 15.794 22.266 15.5307 22.9677 15.5307ZM23.5561 5.90821L25.2782 5.93331L25.2764 7.56313C25.2758 8.47378 24.5135 9.21455 23.576 9.21455C23.5754 9.21455 23.5754 9.21455 23.5754 9.21455C23.1195 9.21455 22.691 9.0406 22.3705 8.72479C22.0541 8.41365 21.8802 8.00153 21.8802 7.56371C21.8802 7.53628 21.879 7.50943 21.8773 7.48257C21.9187 6.6087 22.6636 5.90879 23.5561 5.90821ZM17.4519 10.1065C18.1541 10.1065 18.8564 10.3698 19.3911 10.8957C19.9024 11.3989 20.1838 12.0662 20.1838 12.7754C20.1838 13.4847 19.9024 14.1531 19.3911 14.6568C18.3211 15.7087 16.5815 15.7082 15.5132 14.6562C15.0007 14.1525 14.7188 13.4853 14.7188 12.7766C14.7188 12.0685 15.0007 11.4019 15.5127 10.8975L15.5132 10.8969L15.5138 10.8963C16.0485 10.3692 16.7502 10.1065 17.4519 10.1065ZM9.99683 5.47098C10.5315 4.94502 11.2338 4.68234 11.936 4.68234C12.6383 4.68234 13.3411 4.94561 13.8764 5.47156C14.3872 5.97417 14.6686 6.64139 14.6691 7.35006C14.6691 8.05873 14.3878 8.72654 13.877 9.2309C13.877 9.2309 13.8764 9.23148 13.8758 9.23148C13.8752 9.23207 13.8752 9.23207 13.8747 9.23265C12.8041 10.284 11.0645 10.2834 9.99624 9.23265C9.48546 8.72888 9.2041 8.06107 9.2041 7.35181C9.20468 6.64198 9.48663 5.97417 9.99683 5.47098ZM7.19659 13.6493C7.7313 13.1239 8.43297 12.8606 9.13521 12.8606C9.83805 12.8606 10.5403 13.1239 11.0756 13.6505C11.5875 14.1536 11.8689 14.8209 11.8689 15.5301C11.8689 16.2394 11.5875 16.9072 11.0756 17.4104C10.0068 18.4623 8.26601 18.4629 7.19659 17.4104C6.68523 16.9072 6.40386 16.2394 6.40386 15.5301C6.40386 14.8203 6.68581 14.1519 7.19659 13.6493ZM4.31346 21.9099C4.84876 21.3839 5.55042 21.1207 6.25267 21.1207C6.95492 21.1207 7.65717 21.3839 8.19188 21.9099C8.70324 22.4137 8.98461 23.0815 8.98461 23.7907C8.98461 24.5 8.70324 25.1672 8.19188 25.6704C8.19188 25.6704 8.19188 25.6704 8.19129 25.6704C7.12304 26.7223 5.38288 26.7223 4.31229 25.6698C3.80093 25.1672 3.51956 24.5 3.51956 23.7919C3.51898 23.0821 3.80093 22.4137 4.31346 21.9099Z" fill="#212121"/>
</g>
<defs>
<clipPath id="clip0">
<rect width="28.0168" height="28.0168" fill="white" transform="translate(0.602539 0.773254)"/>
</clipPath>
</defs>
</svg>
