<svg width="29" height="29" viewBox="0 0 29 29" fill="none" xmlns="http://www.w3.org/2000/svg">
<g clip-path="url(#clip0)">
<path d="M24.319 19.8362C24.319 19.8362 23.0641 23.8111 14.0345 23.8111C5.00492 23.8111 3.75 19.8362 3.75 19.8362L14.0345 1.94049L24.319 19.8362Z" fill="#F26E64"/>
<path d="M26.2921 23.1691C26.2921 23.1691 24.8445 27.6226 14.0347 27.6226C3.22488 27.6226 1.77734 23.1691 1.77734 23.1691L3.7502 19.8362C3.7502 19.8362 5.00512 23.8111 14.0347 23.8111C23.0643 23.8111 24.3192 19.8362 24.3192 19.8362L26.2921 23.1691Z" fill="#9DC85C"/>
<path d="M27.4023 23.5299C27.5062 23.2112 27.4671 22.8628 27.2961 22.5744L25.3326 19.2568C25.332 19.2562 25.332 19.255 25.3314 19.2544L15.0469 1.35869C14.8385 0.996805 14.4527 0.773254 14.0348 0.773254C13.6169 0.773254 13.231 0.996805 13.0227 1.35869L2.73816 19.2544C2.73758 19.255 2.73758 19.2562 2.73699 19.2568L0.77348 22.5744C0.602461 22.8628 0.563938 23.2106 0.66725 23.5299C0.841771 24.0687 2.70431 28.7901 14.0348 28.7901C25.3653 28.7901 27.2278 24.0687 27.4023 23.5299ZM14.0348 4.28353L22.9786 19.8463C22.9774 19.8475 22.9768 19.8492 22.9756 19.8504C22.9406 19.8971 22.8998 19.9479 22.8554 20.001C22.8461 20.0126 22.8356 20.0243 22.8256 20.036C22.7299 20.1469 22.6126 20.2695 22.4708 20.399C22.4568 20.4119 22.4433 20.4241 22.4287 20.437C22.3558 20.5024 22.2776 20.5683 22.1912 20.636C22.1818 20.6436 22.1713 20.6512 22.162 20.6582C22.0809 20.7212 21.9939 20.7849 21.9011 20.8491C21.8842 20.8607 21.8684 20.8724 21.8509 20.8841C21.7487 20.953 21.6396 21.0224 21.5229 21.0919C21.503 21.1035 21.482 21.1152 21.4616 21.1269C21.3495 21.1923 21.2304 21.2571 21.1044 21.3218C21.0904 21.3289 21.0775 21.3364 21.0635 21.3434C20.9281 21.4117 20.7822 21.4789 20.6304 21.5448C20.5995 21.5582 20.568 21.5717 20.5364 21.5845C20.2224 21.7176 19.8716 21.8442 19.4823 21.9616C19.4414 21.9738 19.4006 21.9861 19.3591 21.9983C19.1642 22.055 18.9605 22.1092 18.7463 22.1606C18.7183 22.167 18.6879 22.1734 18.6593 22.1799C18.4614 22.2254 18.2536 22.2686 18.0389 22.3089C17.9933 22.3176 17.949 22.3264 17.9029 22.3345C17.6653 22.3771 17.4172 22.4157 17.1592 22.4501C17.1085 22.4571 17.0553 22.4629 17.0034 22.4694C16.7623 22.4997 16.5131 22.5266 16.2534 22.5499C16.2143 22.5534 16.1769 22.5575 16.1378 22.561C15.8524 22.5849 15.5529 22.6024 15.2448 22.6165C15.1741 22.6194 15.1018 22.6223 15.03 22.6246C14.7095 22.6363 14.3809 22.6445 14.0354 22.6445C13.6881 22.6445 13.3577 22.6363 13.0355 22.6246C12.9649 22.6223 12.8937 22.6194 12.8236 22.6165C12.5143 22.6024 12.2143 22.5844 11.9283 22.561C11.8862 22.5575 11.8465 22.5528 11.8051 22.5493C11.5465 22.5266 11.2973 22.4991 11.0568 22.4688C11.0055 22.4624 10.9535 22.4565 10.9027 22.4495C10.6442 22.4145 10.3961 22.376 10.1585 22.3334C10.1107 22.3246 10.0646 22.3159 10.0173 22.3065C9.79898 22.2657 9.58769 22.2219 9.3869 22.1752C9.36356 22.1699 9.33846 22.1647 9.31511 22.1594C9.09915 22.1081 8.89486 22.0532 8.69874 21.996C8.65672 21.9837 8.61527 21.9715 8.57442 21.9592C8.38122 21.9009 8.19502 21.8407 8.0205 21.7783C8.01583 21.7765 8.01116 21.7748 8.00649 21.773C7.83489 21.7112 7.67379 21.6464 7.5197 21.5816C7.48818 21.5682 7.45666 21.5553 7.42573 21.5419C7.27455 21.4759 7.13038 21.4094 6.99613 21.3411C6.97687 21.3312 6.95936 21.3218 6.94068 21.3119C6.81753 21.2483 6.70079 21.1847 6.59106 21.1205C6.57355 21.11 6.55429 21.1 6.53736 21.0895C6.42062 21.0201 6.31206 20.9506 6.20991 20.8817C6.19123 20.8689 6.17372 20.8567 6.15563 20.8438C6.05874 20.7767 5.9671 20.7101 5.88363 20.6442C5.88013 20.6413 5.87605 20.6389 5.87313 20.636C5.78557 20.5671 5.70678 20.5 5.63265 20.4341C5.61922 20.4224 5.60638 20.4107 5.59354 20.399C5.52233 20.3343 5.45638 20.2706 5.39742 20.2105C5.39684 20.2099 5.39626 20.2093 5.39567 20.2088C5.33614 20.1475 5.28419 20.0891 5.23633 20.0331C5.22932 20.0249 5.22232 20.0167 5.2159 20.0091C5.16979 19.9543 5.12835 19.9023 5.09274 19.8545C5.09157 19.8533 5.09099 19.8521 5.09041 19.851L14.0348 4.28353ZM14.0348 26.4553C6.33482 26.4553 3.82089 24.1206 3.12339 23.1873L3.8384 21.9791C3.85825 21.9989 3.88218 22.0193 3.90261 22.0392C3.95339 22.0882 4.00592 22.1373 4.06079 22.1863C4.09639 22.2184 4.13258 22.2505 4.16994 22.2826C4.22947 22.334 4.29134 22.3853 4.35555 22.4373C4.39174 22.4665 4.42734 22.4962 4.46528 22.5254C4.55517 22.5954 4.65031 22.6655 4.74895 22.7355C4.76413 22.746 4.77697 22.7565 4.79214 22.767C4.90538 22.8458 5.02562 22.9241 5.14994 23.0023C5.19197 23.0285 5.23691 23.0542 5.28069 23.0805C5.36941 23.1336 5.45988 23.1867 5.55502 23.2392C5.60697 23.2678 5.66008 23.2964 5.7132 23.3251C5.80892 23.3758 5.90756 23.426 6.00913 23.4756C6.06341 23.5025 6.11711 23.5288 6.17314 23.555C6.2963 23.6128 6.42471 23.6694 6.55604 23.7249C6.59456 23.7412 6.63017 23.7581 6.66927 23.7739C6.84087 23.8445 7.02007 23.9128 7.20568 23.9788C7.25529 23.9963 7.30841 24.0132 7.35977 24.0307C7.50044 24.0792 7.64402 24.1264 7.79286 24.172C7.86349 24.1936 7.93645 24.2146 8.00941 24.2356C8.14891 24.2759 8.29133 24.315 8.43783 24.3523C8.51546 24.3722 8.59309 24.392 8.67247 24.4113C8.83474 24.4504 9.00226 24.4872 9.17328 24.5234C9.2404 24.5374 9.30461 24.5525 9.3729 24.566C9.61337 24.6132 9.86085 24.6576 10.1183 24.6979C10.1661 24.7055 10.2169 24.7113 10.2653 24.7183C10.4784 24.7498 10.6961 24.7796 10.9202 24.8059C11.0125 24.8169 11.1082 24.8257 11.2027 24.8356C11.3936 24.8555 11.5886 24.8736 11.7882 24.8899C11.8932 24.8981 11.9995 24.9062 12.1069 24.9133C12.3152 24.9273 12.53 24.9384 12.7478 24.9477C12.8476 24.9518 12.945 24.9576 13.0466 24.9605C13.367 24.971 13.6951 24.9775 14.0354 24.9775C14.3756 24.9775 14.7031 24.9705 15.0241 24.9605C15.1257 24.957 15.2232 24.9518 15.323 24.9477C15.5407 24.9384 15.7549 24.9273 15.9639 24.9133C16.0713 24.9062 16.1775 24.8981 16.2825 24.8899C16.4822 24.8741 16.6765 24.8561 16.868 24.8356C16.9625 24.8257 17.0583 24.8164 17.1505 24.8059C17.3752 24.7796 17.5929 24.7504 17.8054 24.7183C17.8538 24.7113 17.9046 24.7049 17.9525 24.6979C18.2099 24.6576 18.4579 24.6132 18.6978 24.566C18.7661 24.5525 18.8303 24.5374 18.8974 24.5234C19.0685 24.4877 19.236 24.4504 19.3983 24.4113C19.4776 24.392 19.5553 24.3722 19.6329 24.3523C19.7794 24.3144 19.9218 24.2759 20.0613 24.2356C20.1343 24.2146 20.2072 24.1936 20.2779 24.172C20.4267 24.1264 20.5703 24.0792 20.711 24.0307C20.7617 24.0132 20.8149 23.9969 20.865 23.9788C21.0512 23.9122 21.2299 23.8439 21.4015 23.7739C21.4406 23.7576 21.4767 23.7412 21.5147 23.7249C21.646 23.6694 21.7744 23.6128 21.8976 23.555C21.9536 23.5288 22.0073 23.5019 22.0616 23.4756C22.1632 23.426 22.2618 23.3758 22.3575 23.3251C22.4112 23.2964 22.4643 23.2678 22.5157 23.2392C22.6103 23.1867 22.7013 23.1336 22.79 23.0805C22.8332 23.0542 22.8782 23.0285 22.9208 23.0023C23.0457 22.9246 23.1653 22.8458 23.2786 22.767C23.2938 22.7565 23.3072 22.746 23.3218 22.7355C23.4204 22.6655 23.515 22.5954 23.6054 22.5254C23.6434 22.4962 23.6784 22.4665 23.7152 22.4373C23.7788 22.3859 23.8413 22.334 23.9008 22.2826C23.9381 22.2505 23.9743 22.2184 24.0099 22.1863C24.0648 22.1367 24.1168 22.0876 24.1681 22.0392C24.1885 22.0193 24.2125 21.9989 24.2323 21.9791L24.9444 23.1826C24.2294 24.1387 21.7061 26.4553 14.0348 26.4553Z" fill="#212121"/>
<path d="M14.0346 14.5844C14.6789 14.5844 15.2019 14.0614 15.2019 13.417V11.5714C15.2019 10.927 14.6789 10.4041 14.0346 10.4041C13.3902 10.4041 12.8672 10.927 12.8672 11.5714V13.417C12.8672 14.062 13.3902 14.5844 14.0346 14.5844Z" fill="#212121"/>
<path d="M10.1713 19.7209C10.8157 19.7209 11.3386 19.198 11.3386 18.5536V16.708C11.3386 16.0636 10.8157 15.5406 10.1713 15.5406C9.52689 15.5406 9.00391 16.0636 9.00391 16.708V18.5536C9.00391 19.1985 9.5263 19.7209 10.1713 19.7209Z" fill="#212121"/>
<path d="M17.8978 19.7209C18.5422 19.7209 19.0652 19.198 19.0652 18.5536V16.708C19.0652 16.0636 18.5422 15.5406 17.8978 15.5406C17.2535 15.5406 16.7305 16.0636 16.7305 16.708V18.5536C16.7305 19.1985 17.2535 19.7209 17.8978 19.7209Z" fill="#212121"/>
</g>
<defs>
<clipPath id="clip0">
<rect width="28.0168" height="28.0168" fill="white" transform="translate(0.0263672 0.773254)"/>
</clipPath>
</defs>
</svg>
