<svg width="31" height="38" viewBox="0 0 31 38" fill="none" xmlns="http://www.w3.org/2000/svg">
<rect x="1.13184" y="10.1211" width="22.6992" height="26.8423" fill="#AEDFE4"/>
<rect x="23.833" y="10.1211" width="5.5579" height="26.8423" fill="#44888F"/>
<path d="M29.8521 9.55795C29.7528 9.4579 29.6149 9.40073 29.4734 9.40073H23.7562H22.8636V5.64026L22.8635 5.63748C22.8619 2.97885 20.6985 0.816406 18.0396 0.816406C16.9702 0.816406 15.9814 1.16665 15.1807 1.75781C14.3801 1.16665 13.3913 0.816406 12.3219 0.816406C9.66196 0.816406 7.49794 2.98042 7.49794 5.64033L7.49802 5.64176V9.4008H0.887547C0.746761 9.4008 0.60812 9.45797 0.508785 9.55802C0.408734 9.65736 0.351563 9.796 0.351563 9.93678L0.351562 35.7995C0.351562 36.0946 0.591683 36.3355 0.887547 36.3355C1.18341 36.3355 1.42353 36.0946 1.42353 35.7995V10.4727H7.49802V13.5099C7.49802 13.8057 7.73814 14.0458 8.034 14.0458C8.32986 14.0458 8.56998 13.8057 8.56998 13.5099V10.4727H16.0738V13.5099C16.0738 13.8057 16.3139 14.0458 16.6097 14.0458C16.9049 14.0458 17.1457 13.8057 17.1457 13.5099V10.4727H23.2202V18.2895V20.4334V36.3343H1.42353V29.7238C1.42353 29.4279 1.18341 29.1878 0.887547 29.1878C0.591683 29.1878 0.351563 29.4279 0.351563 29.7238V36.8703C0.351563 37.0111 0.408734 37.1497 0.508785 37.249C0.60812 37.3491 0.746761 37.4062 0.887547 37.4062H23.7562H29.4734C29.6105 37.4062 29.7477 37.3539 29.8523 37.2492C29.9429 37.1587 29.9941 37.0438 30.0063 36.9256L30.0066 36.9229C30.0083 36.9059 30.0092 36.8889 30.0093 36.8718L30.0093 36.8703V9.93671C30.0093 9.79593 29.9522 9.65728 29.8521 9.55795ZM13.2159 9.40073H8.56998V5.64026C8.57056 3.57186 10.2533 1.88837 12.3219 1.88837C13.0808 1.88837 13.7874 2.11556 14.3785 2.50454C13.6545 3.34847 13.2157 4.44387 13.2157 5.64033L13.2159 5.64448V9.40073ZM16.0738 5.64026V9.40073H14.2879V5.64026L14.2877 5.63755C14.2884 4.71422 14.625 3.86844 15.1807 3.2144C15.7369 3.86887 16.0735 4.71623 16.0738 5.64026ZM21.7916 9.4008H17.1457V5.64176L17.1458 5.64033C17.1458 4.44387 16.7069 3.34854 15.983 2.50454C16.5741 2.11556 17.2807 1.88837 18.0396 1.88837C20.1084 1.88837 21.7916 3.57151 21.7916 5.64033L21.7916 5.64176V9.4008ZM24.2922 20.4334V18.2895V10.4727H26.0787V33.7894L24.2922 35.576V20.4334ZM25.0498 36.3343L26.6146 34.7694L28.1794 36.3343H25.0498ZM28.9374 35.5763L27.1506 33.7894V10.4727H28.9374V35.5763Z" fill="#282D2D"/>
</svg>
