<svg width="160" height="41" viewBox="0 0 160 41" fill="none" xmlns="http://www.w3.org/2000/svg">
<path d="M58.5926 4.66064H62.646L65.6927 19.6078L68.8453 4.66064H72.7928L73.1902 26.2422H70.2759L69.958 11.2417L66.9113 26.2422H64.5535L61.4538 11.1884L61.1624 26.2422H58.2217L58.5926 4.66064Z" fill="#282828"/>
<path d="M87.5127 4.66064H91.6985L95.9904 26.2422H92.3608L91.5131 21.2598H87.7776L86.9033 26.2422H83.2208L87.5127 4.66064ZM91.0892 18.7552L89.6321 9.69633L88.175 18.7552H91.0892Z" fill="#282828"/>
<path d="M105.381 23.711L111.13 7.37832H105.672V4.66064H115.077V6.68558L109.09 23.5511H115.104V26.2422H105.381V23.711Z" fill="#282828"/>
<path d="M128.504 4.66064H132.69L136.982 26.2422H133.352L132.505 21.2598H128.769L127.895 26.2422H124.212L128.504 4.66064ZM132.081 18.7552L130.624 9.69633L129.166 18.7552H132.081Z" fill="#282828"/>
<path d="M147.088 4.66064H152.254C154.515 4.66064 156.201 5.09583 157.314 5.96619C158.427 6.8188 158.983 8.29309 158.983 10.3891C158.983 11.7568 158.78 12.8758 158.374 13.7462C157.985 14.5988 157.305 15.2205 156.334 15.6113L159.328 26.2422H155.407L152.837 16.3573H150.982V26.2422H147.088V4.66064ZM152.227 13.9061C153.34 13.9061 154.126 13.6485 154.585 13.1334C155.062 12.6183 155.301 11.7746 155.301 10.6022C155.301 9.46542 155.089 8.63946 154.665 8.12435C154.259 7.60923 153.517 7.35167 152.439 7.35167H150.982V13.9061H152.227Z" fill="#282828"/>
<path d="M62.1297 39.9915C61.0207 39.9915 60.0902 39.6248 59.3383 38.8915C58.5939 38.1505 58.2217 37.1995 58.2217 36.0383C58.2217 34.8772 58.5939 33.93 59.3383 33.1966C60.0902 32.4556 61.0207 32.0851 62.1297 32.0851C63.345 32.0851 64.3059 32.5893 65.0123 33.5977L64.2147 34.0445C63.9944 33.7161 63.6982 33.4487 63.326 33.2424C62.9538 33.0362 62.555 32.9331 62.1297 32.9331C61.2942 32.9331 60.5953 33.2272 60.0333 33.8154C59.4788 34.3959 59.2015 35.1369 59.2015 36.0383C59.2015 36.9397 59.4788 37.6845 60.0333 38.2727C60.5953 38.8533 61.2942 39.1436 62.1297 39.1436C62.555 39.1436 62.9538 39.0443 63.326 38.8457C63.6982 38.6394 63.9944 38.3682 64.2147 38.0321L65.0237 38.479C64.2869 39.4873 63.3222 39.9915 62.1297 39.9915Z" fill="#282828"/>
<path d="M72.8828 39.854H71.7662L69.8293 36.8175H68.3139V39.854H67.3682V32.2112H70.4217C71.1281 32.2112 71.7016 32.4212 72.1422 32.8414C72.5827 33.2615 72.803 33.8192 72.803 34.5143C72.803 35.1713 72.6131 35.6946 72.2333 36.0842C71.8535 36.4737 71.3864 36.6915 70.8319 36.7373L72.8828 39.854ZM70.3078 35.981C70.7559 35.981 71.1205 35.8435 71.4016 35.5685C71.6826 35.2935 71.8231 34.9421 71.8231 34.5143C71.8231 34.0866 71.6826 33.739 71.4016 33.4716C71.1205 33.1966 70.7559 33.0591 70.3078 33.0591H68.3139V35.981H70.3078Z" fill="#282828"/>
<path d="M78.4175 39.854H77.4718V36.6227L74.4753 32.2112H75.5805L77.9389 35.7633L80.2974 32.2112H81.4026L78.4175 36.6227V39.854Z" fill="#282828"/>
<path d="M85.7714 39.9915C84.5409 39.9915 83.5686 39.5867 82.8546 38.7769L83.4129 38.055C84.0586 38.7807 84.8561 39.1436 85.8056 39.1436C86.4208 39.1436 86.8728 39.0137 87.1614 38.754C87.4501 38.4866 87.5944 38.1772 87.5944 37.8259C87.5944 37.5585 87.5108 37.3331 87.3437 37.1498C87.1766 36.9665 86.9601 36.8251 86.6943 36.7258C86.436 36.6189 86.1436 36.5234 85.817 36.4394C85.498 36.3553 85.1789 36.2637 84.8599 36.1644C84.5409 36.0574 84.2485 35.9314 83.9826 35.7862C83.7244 35.6411 83.5117 35.4348 83.3446 35.1675C83.1775 34.9001 83.0939 34.5831 83.0939 34.2164C83.0939 33.59 83.3408 33.082 83.8345 32.6924C84.3282 32.2952 84.9511 32.0966 85.703 32.0966C86.8348 32.0966 87.7349 32.4518 88.4033 33.1622L87.8336 33.8612C87.2792 33.2501 86.5462 32.9445 85.6347 32.9445C85.1789 32.9445 84.8029 33.0591 84.5067 33.2883C84.2181 33.5098 84.0738 33.8001 84.0738 34.1591C84.0738 34.4265 84.1839 34.648 84.4042 34.8237C84.632 34.9994 84.9093 35.1293 85.2359 35.2133C85.5701 35.2973 85.9309 35.4043 86.3183 35.5342C86.7133 35.6564 87.0741 35.7901 87.4007 35.9352C87.7349 36.0727 88.0121 36.298 88.2324 36.6112C88.4603 36.9244 88.5742 37.3026 88.5742 37.7456C88.5742 38.372 88.3426 38.903 87.8792 39.3384C87.4235 39.7738 86.7209 39.9915 85.7714 39.9915Z" fill="#282828"/>
<path d="M93.8845 39.854H92.9389V33.0591H90.5348V32.2112H96.3V33.0591H93.8845V39.854Z" fill="#282828"/>
<path d="M104.434 39.854H103.352L102.68 38.1582H98.8969L98.2247 39.854H97.1423L100.196 32.2112H101.369L104.434 39.854ZM102.395 37.3102L100.788 33.1966L99.1704 37.3102H102.395Z" fill="#282828"/>
<path d="M111.045 39.854H106.567V32.2112H107.513V39.0061H111.045V39.854Z" fill="#282828"/>
<path d="M121.192 40.003C120.09 40.003 119.164 39.6363 118.412 38.903C117.66 38.162 117.284 37.2071 117.284 36.0383C117.284 34.8696 117.66 33.9185 118.412 33.1852C119.164 32.4518 120.09 32.0851 121.192 32.0851C122.392 32.0851 123.375 32.5626 124.143 33.5174L123.391 33.9872C123.148 33.6664 122.829 33.4105 122.434 33.2195C122.046 33.0285 121.632 32.9331 121.192 32.9331C120.356 32.9331 119.657 33.2272 119.095 33.8154C118.541 34.3959 118.264 35.1369 118.264 36.0383C118.264 36.9397 118.541 37.6845 119.095 38.2727C119.657 38.8609 120.356 39.155 121.192 39.155C121.609 39.155 121.997 39.0748 122.354 38.9144C122.718 38.7464 123.011 38.5516 123.231 38.33V36.7717H120.622V35.9237H124.177V38.6852C123.394 39.5637 122.399 40.003 121.192 40.003Z" fill="#282828"/>
<path d="M132.368 39.854H131.251L129.314 36.8175H127.799V39.854H126.853V32.2112H129.907C130.613 32.2112 131.186 32.4212 131.627 32.8414C132.068 33.2615 132.288 33.8192 132.288 34.5143C132.288 35.1713 132.098 35.6946 131.718 36.0842C131.338 36.4737 130.871 36.6915 130.317 36.7373L132.368 39.854ZM129.793 35.981C130.241 35.981 130.605 35.8435 130.886 35.5685C131.167 35.2935 131.308 34.9421 131.308 34.5143C131.308 34.0866 131.167 33.739 130.886 33.4716C130.605 33.1966 130.241 33.0591 129.793 33.0591H127.799V35.981H129.793Z" fill="#282828"/>
<path d="M138.388 39.9915C137.271 39.9915 136.364 39.6172 135.665 38.8686C134.966 38.12 134.617 37.1765 134.617 36.0383C134.617 34.9001 134.966 33.9567 135.665 33.2081C136.364 32.4594 137.271 32.0851 138.388 32.0851C139.497 32.0851 140.401 32.4594 141.1 33.2081C141.806 33.9567 142.159 34.9001 142.159 36.0383C142.159 37.1765 141.806 38.12 141.1 38.8686C140.401 39.6172 139.497 39.9915 138.388 39.9915ZM138.388 39.1436C139.223 39.1436 139.896 38.8533 140.405 38.2727C140.921 37.6845 141.179 36.9397 141.179 36.0383C141.179 35.1293 140.921 34.3845 140.405 33.8039C139.896 33.2233 139.223 32.9331 138.388 32.9331C137.545 32.9331 136.869 33.2233 136.36 33.8039C135.851 34.3845 135.597 35.1293 135.597 36.0383C135.597 36.9397 135.851 37.6845 136.36 38.2727C136.869 38.8533 137.545 39.1436 138.388 39.1436Z" fill="#282828"/>
<path d="M150.176 39.1665C149.652 39.7165 148.885 39.9915 147.875 39.9915C146.865 39.9915 146.094 39.7165 145.562 39.1665C145.038 38.6089 144.776 37.8488 144.776 36.8863V32.2112H145.721V36.8633C145.721 37.5738 145.908 38.1314 146.28 38.5363C146.652 38.9412 147.184 39.1436 147.875 39.1436C148.566 39.1436 149.098 38.9412 149.47 38.5363C149.842 38.1314 150.028 37.5738 150.028 36.8633V32.2112H150.974V36.8748C150.974 37.845 150.708 38.6089 150.176 39.1665Z" fill="#282828"/>
<path d="M154.839 39.854H153.893V32.2112H156.946C157.683 32.2112 158.264 32.4327 158.69 32.8758C159.115 33.3188 159.328 33.865 159.328 34.5143C159.328 35.1637 159.111 35.7098 158.678 36.1529C158.253 36.596 157.676 36.8175 156.946 36.8175H154.839V39.854ZM156.832 35.9696C157.281 35.9696 157.645 35.8359 157.926 35.5685C158.207 35.2935 158.348 34.9421 158.348 34.5143C158.348 34.0866 158.207 33.739 157.926 33.4716C157.645 33.1966 157.281 33.0591 156.832 33.0591H154.839V35.9696H156.832Z" fill="#282828"/>
<path d="M19.8391 40.5073C14.4091 40.4263 9.63917 38.7895 6.09084 35.4374C2.54251 32.0852 0.637389 27.416 0.248047 21.9994C5.67805 22.0803 10.448 23.7171 13.9963 27.0693C17.5446 30.4214 19.4498 35.0907 19.8391 40.5073Z" fill="#00BF8B"/>
<path d="M25.0954 40.5072C30.5254 40.4262 35.2953 38.7894 38.8436 35.4373C42.392 32.0851 44.2971 27.4159 44.6864 21.9993C39.2564 22.0803 34.4865 23.717 30.9382 27.0692C27.3898 30.4214 25.4847 35.0906 25.0954 40.5072Z" fill="#00BF8B"/>
<path d="M30.6546 18.3833C30.6546 22.8826 27.0072 26.5299 22.508 26.5299C18.0087 26.5299 14.3613 22.8826 14.3613 18.3833C14.3613 13.884 22.508 0.126953 22.508 0.126953C22.508 0.126953 30.6546 13.884 30.6546 18.3833Z" fill="url(#paint0_linear)"/>
<path opacity="0.4" fill-rule="evenodd" clip-rule="evenodd" d="M19.7235 23.568C24.0029 23.568 27.472 20.0989 27.472 15.8195C27.472 12.7615 24.2917 4.59491 22.4763 0.182389C22.4979 0.145822 22.509 0.126953 22.509 0.126953C22.509 0.126953 30.6557 13.884 30.6557 18.3833C30.6557 22.8826 27.0083 26.5299 22.509 26.5299C19.3819 26.5299 16.6663 24.768 15.3008 22.1827C16.5549 23.056 18.0794 23.568 19.7235 23.568Z" fill="url(#paint1_linear)"/>
<path fill-rule="evenodd" clip-rule="evenodd" d="M18.6697 34.5335C10.0552 33.409 3.01158 28.5112 0.238331 22.0141C0.237988 22.0093 0.237646 22.0046 0.237305 21.9998C5.66731 22.0808 10.4372 23.7176 13.9856 27.0698C16.1471 29.1118 17.6989 31.6427 18.6697 34.5335ZM44.6746 22.0147C41.9012 28.5116 34.8576 33.4091 26.2432 34.5335C27.214 31.6427 28.7658 29.1118 30.9274 27.0697C34.4757 23.7175 39.2457 22.0807 44.6757 21.9998C44.6753 22.0047 44.675 22.0097 44.6746 22.0147Z" fill="url(#paint2_linear)"/>
<defs>
<linearGradient id="paint0_linear" x1="22.508" y1="0.126953" x2="22.508" y2="26.5299" gradientUnits="userSpaceOnUse">
<stop stop-color="#FFFC00"/>
<stop offset="1" stop-color="#F0A200"/>
</linearGradient>
<linearGradient id="paint1_linear" x1="22.9782" y1="0.126953" x2="14.3596" y2="22.7808" gradientUnits="userSpaceOnUse">
<stop stop-color="#E38600"/>
<stop offset="1" stop-color="#E38600" stop-opacity="0.37"/>
</linearGradient>
<linearGradient id="paint2_linear" x1="22.4565" y1="21.9998" x2="22.4565" y2="34.5335" gradientUnits="userSpaceOnUse">
<stop stop-color="#FBE700"/>
<stop offset="1" stop-color="#1BD282"/>
</linearGradient>
</defs>
</svg>
