<svg width="412" height="209" viewBox="0 0 412 209" fill="none" xmlns="http://www.w3.org/2000/svg">
<path d="M366.609 104.466C324.944 73.4113 279.475 59.3306 231.867 59.3306C184.259 59.3306 138.79 73.4113 97.125 104.466" stroke="#E5E7EB" stroke-width="90" stroke-linecap="round"/>
<path opacity="0.35" d="M123.408 189.649C170.454 179.357 200.249 132.877 189.957 85.8315C179.666 38.7861 133.186 8.99109 86.1402 19.2824C39.0948 29.5737 9.2998 76.0543 19.5911 123.1C29.8824 170.145 76.363 199.94 123.408 189.649Z" fill="#F7F0A1"/>
<path opacity="0.35" d="M104.749 178.047C145.374 178.047 178.307 145.114 178.307 104.49C178.307 63.865 145.374 30.9321 104.749 30.9321C64.1243 30.9321 31.1914 63.865 31.1914 104.49C31.1914 145.114 64.1243 178.047 104.749 178.047Z" fill="#F7F0A1"/>
<path d="M105.488 49.1981L114.256 38.7247C114.987 37.7504 116.692 37.994 117.179 39.2118L122.294 51.8774L133.985 44.5703C134.96 43.8396 136.421 44.5703 136.665 45.7882L137.639 59.428L151.035 56.0181C152.253 55.7745 153.471 56.7487 152.984 57.9666L149.574 71.3628L163.214 72.3371C164.431 72.3371 165.162 73.7985 164.431 75.0164L157.124 86.7076L169.79 91.8226C171.008 92.3097 171.251 93.7711 170.277 94.7454L159.804 103.514L170.277 112.282C171.251 113.013 171.008 114.718 169.79 115.205L157.124 120.32L164.431 132.011C165.162 132.986 164.431 134.447 163.214 134.691L149.574 135.665L152.984 149.061C153.227 150.279 152.253 151.497 151.035 151.01L137.639 147.6L136.665 161.24C136.665 162.457 135.203 163.188 133.985 162.457L122.294 155.15L117.179 167.816C116.692 169.034 115.231 169.277 114.256 168.303L105.488 157.83L96.7196 168.303C95.9888 169.277 94.2838 169.034 93.7967 167.816L88.6818 155.15L76.9905 162.457C76.0162 163.188 74.5548 162.457 74.3112 161.24L73.337 147.6L59.9407 151.01C58.7229 151.253 57.5051 150.279 57.9922 149.061L61.4021 135.665L47.7623 134.691C46.5445 134.691 45.8138 133.229 46.5445 132.011L53.8515 120.32L41.186 115.205C39.9681 114.718 39.7246 113.257 40.6988 112.282L51.1723 103.514L40.6988 94.7454C39.7246 94.0147 39.9681 92.3097 41.186 91.8226L53.8515 86.7076L46.5445 75.0164C45.8138 74.0421 46.5445 72.5807 47.7623 72.3371L61.4021 71.3628L57.9922 57.9666C57.7486 56.7487 58.7229 55.5309 59.9407 56.0181L73.337 59.428L74.3112 45.7882C74.3112 44.5703 75.7727 43.8396 76.9905 44.5703L88.6818 51.8774L93.7967 39.2118C94.2838 37.994 95.7453 37.7504 96.7196 38.7247L105.488 49.1981Z" fill="#FFC936"/>
<path d="M114.985 120.566C131.304 97.1839 121.805 74.532 106.947 55.5337C106.46 55.5337 106.216 55.5337 105.729 55.5337C79.1801 55.5337 57.7461 76.9677 57.7461 103.517C57.7461 123.489 69.9245 140.539 87.2178 147.846C97.6913 141.026 107.19 132.014 114.985 120.566Z" fill="#FFF15C"/>
<path d="M106.699 55.5337C121.8 74.532 131.3 96.9403 114.737 120.566C106.943 132.258 97.4436 141.026 86.7266 147.846C92.5722 150.282 98.6614 151.5 105.481 151.5C132.03 151.5 153.464 130.066 153.464 103.517C153.464 77.4549 132.761 56.0208 106.699 55.5337Z" fill="#F7E843"/>
</svg>
