<svg width="20" height="27" viewBox="0 0 20 27" fill="none" xmlns="http://www.w3.org/2000/svg">
<path d="M0.982197 26.0138H16.9307C17.1625 26.0138 17.3504 25.8259 17.3504 25.5942V19.8791C17.7568 19.4046 19.0292 17.6808 19.0292 14.682C19.0292 11.6833 17.7568 9.95942 17.3504 9.48521V7.96688C17.3504 7.7351 17.1625 7.54718 16.9307 7.54718H13.7469L16.388 4.90604C16.552 4.7423 16.552 4.47651 16.388 4.31257L16.2651 4.18961L17.2274 3.22725C17.3914 3.06331 17.3914 2.79772 17.2274 2.63378L15.5486 0.954989C15.3849 0.791045 15.1191 0.791045 14.9552 0.954989L13.9928 1.91734L13.8698 1.79438C13.7059 1.63044 13.4403 1.63044 13.2764 1.79438L6.56122 8.50953C6.39727 8.67348 6.39727 8.93927 6.56122 9.10301L6.68417 9.22597L5.30212 10.608C5.13818 10.772 5.13818 11.0378 5.30212 11.2015L6.98091 12.8803C7.14486 13.0442 7.41045 13.0442 7.57439 12.8803L8.95644 11.4982L9.0794 11.6212C9.24334 11.7851 9.50914 11.7851 9.67288 11.6212L10.7389 10.5551C11.6476 11.1617 12.8708 10.9609 13.5377 10.0955C14.0776 10.3785 16.0913 11.6382 16.0913 14.682C16.0913 17.4418 13.9076 19.0032 13.4522 19.2987H11.4746V16.3608C11.4746 16.129 11.2867 15.9411 11.0549 15.9411H3.50038C3.2686 15.9411 3.08068 16.129 3.08068 16.3608V18.0396C3.08068 18.2714 3.2686 18.4593 3.50038 18.4593H8.95644V19.2987H7.69735C7.46557 19.2987 7.27765 19.4866 7.27765 19.7184V22.6563H2.66098C1.50251 22.6577 0.563935 23.5965 0.5625 24.7548V25.5942C0.5625 25.8259 0.750421 26.0138 0.982197 26.0138ZM15.2519 1.84521L16.3372 2.93052L15.6716 3.59613L14.5863 2.51082L15.2519 1.84521ZM7.27765 11.9901L6.19234 10.9048L7.27765 9.81945L8.36296 10.9048L7.27765 11.9901ZM11.8943 10.0654C11.199 10.0654 10.6352 9.5016 10.6352 8.80627C10.6352 8.11095 11.199 7.54718 11.8943 7.54718C12.5896 7.54718 13.1534 8.11095 13.1534 8.80627C13.1526 9.5014 12.5894 10.0645 11.8943 10.0654ZM13.0497 7.0574C12.2189 6.50593 11.1146 6.61639 10.4096 7.32155C9.70443 8.02651 9.59398 9.13088 10.1454 9.96167L9.37614 10.731L7.45143 8.80627L13.5731 2.6846L15.4978 4.6093L13.0497 7.0574ZM13.9504 9.22597C14.0069 8.94911 14.0069 8.66364 13.9504 8.38658H16.511V9.22597H13.9504ZM16.9307 14.682C16.9893 12.9252 16.2632 11.2333 14.9494 10.0654H16.7407C17.734 11.395 18.2451 13.0233 18.1898 14.682C18.2451 16.3407 17.734 17.9691 16.7409 19.2987H14.8146C16.1429 18.1296 16.912 16.4514 16.9307 14.682ZM3.92008 17.6199V16.7805H10.6352V17.6199H3.92008ZM10.6352 18.4593V21.3972C10.6352 21.629 10.4473 21.8169 10.2155 21.8169C9.98376 21.8169 9.79583 21.629 9.79583 21.3972V18.4593H10.6352ZM8.11705 20.1381H8.95644V21.3972C8.95644 22.0925 9.5202 22.6563 10.2155 22.6563C10.9109 22.6563 11.4746 22.0925 11.4746 21.3972V20.1381H16.511V22.6563H8.11705V20.1381ZM1.40189 24.7548C1.40271 24.0596 1.96586 23.4965 2.66098 23.4957H16.511V25.1745H1.40189V24.7548Z" fill="#CCBC00"/>
<path d="M14.8325 20.9775H15.6719V21.8169H14.8325V20.9775Z" fill="#CCBC00"/>
<path d="M13.1533 20.9775H13.9927V21.8169H13.1533V20.9775Z" fill="#CCBC00"/>
</svg>
