<svg width="21" height="30" viewBox="0 0 21 30" fill="none" xmlns="http://www.w3.org/2000/svg">
<path fill-rule="evenodd" clip-rule="evenodd" d="M0.5625 19.7892L0.562654 19.7801C0.567018 19.5213 0.587248 19.2631 0.623223 19.0069C0.624423 18.9638 0.628119 18.9188 0.635075 18.8719C0.987051 16.5015 2.59031 13.0671 4.36455 9.83731C6.16434 6.56101 8.23306 3.33285 9.64716 1.31692C10.1006 0.670571 11.0536 0.670366 11.5073 1.31651C12.9228 3.33262 14.9923 6.56094 16.7919 9.83737C18.5659 13.0672 20.1683 16.502 20.5179 18.873C20.5225 18.9041 20.5255 18.9336 20.5274 18.961C20.5668 19.2336 20.5884 19.5085 20.592 19.7839L20.5921 19.7911L20.5921 19.7984C20.586 25.3352 16.1084 29.8259 10.5784 29.832H10.5762C5.04618 29.8259 0.568577 25.3352 0.56251 19.7984L0.5625 19.7892ZM10.5773 28.8126C5.61159 28.8071 1.58743 24.774 1.58198 19.7972C1.58596 19.5615 1.60563 19.3263 1.64088 19.0931C1.64179 19.0871 1.64225 19.0811 1.64225 19.075V19.0388C1.64225 19.033 1.64263 19.0274 1.64349 19.0217C2.24863 14.9463 7.06758 6.9089 9.95872 2.65996C9.96328 2.65326 9.96783 2.64657 9.97238 2.63989C10.0841 2.47582 10.1929 2.31746 10.2985 2.16524C10.3607 2.07545 10.4218 1.98779 10.4818 1.90237C10.5293 1.83456 10.6253 1.83454 10.6729 1.90233C10.7329 1.98772 10.794 2.07535 10.8563 2.16511C10.9619 2.31729 11.0708 2.47562 11.1826 2.63965C11.1871 2.64633 11.1917 2.65303 11.1963 2.65973C14.0895 6.90862 18.9084 14.9463 19.5093 19.0217C19.5102 19.0275 19.5106 19.033 19.5106 19.0388C19.5107 19.0539 19.5113 19.069 19.5151 19.0841C19.5503 19.3203 19.5695 19.5585 19.5726 19.7972C19.5672 24.774 15.543 28.8071 10.5773 28.8126Z" fill="#CCBC00"/>
<path fill-rule="evenodd" clip-rule="evenodd" d="M3.9081 19.5792C4.18863 19.5557 4.43512 19.764 4.45864 20.0446C4.52266 20.8083 4.8267 21.9834 5.51917 22.9799C6.20016 23.9598 7.24717 24.7588 8.8391 24.8556C9.1201 24.8727 9.33404 25.1144 9.31695 25.3954C9.29987 25.6764 9.05822 25.8903 8.77722 25.8732C6.81899 25.7541 5.50723 24.7491 4.682 23.5616C3.86825 22.3907 3.51863 21.0351 3.44273 20.1297C3.41921 19.8492 3.62756 19.6027 3.9081 19.5792Z" fill="#CCBC00"/>
</svg>
