<svg width="27" height="25" viewBox="0 0 27 25" fill="none" xmlns="http://www.w3.org/2000/svg">
<path d="M25.9528 15.0545C26.0657 14.9443 26.0979 14.7754 26.0336 14.6313C25.9692 14.4872 25.8226 14.3984 25.6644 14.4091C25.506 14.4198 21.7445 14.6876 18.3076 16.2233C17.9556 16.3806 17.6119 16.5508 17.2757 16.731C17.832 15.972 18.3547 15.1687 18.8387 14.3264C21.2066 10.2069 22.3786 5.62615 22.4385 5.38781C22.4475 5.35536 22.4522 5.32168 22.4522 5.28761C22.4522 5.11013 22.3281 4.95709 22.1546 4.91977C22.0259 4.89194 21.8958 4.93393 21.8074 5.02341C21.6291 5.1973 18.2605 8.51697 15.894 12.6336C15.6665 13.0295 15.4509 13.4299 15.2462 13.833C15.3181 12.9388 15.3411 12.139 15.3411 11.485C15.3411 9.92738 15.2194 8.23935 14.9793 6.46774C14.9514 6.26154 14.7609 6.117 14.5556 6.14503C14.3494 6.17295 14.2049 6.36272 14.2328 6.56887C14.4683 8.30704 14.5878 9.96106 14.5878 11.485C14.5878 15.1005 13.9093 17.7934 13.48 19.1352C13.0507 17.7956 12.3732 15.1073 12.3732 11.485C12.3732 7.88232 13.0459 4.3447 13.4811 2.43337C13.6547 3.19329 13.8656 4.20901 14.0556 5.3795C14.0889 5.58481 14.2819 5.72428 14.4878 5.691C14.6931 5.65767 14.8325 5.46411 14.7993 5.2588C14.3758 2.65004 13.848 0.789734 13.8427 0.771249C13.7965 0.609501 13.6487 0.498047 13.4805 0.498047C13.3123 0.498047 13.1645 0.60955 13.1183 0.771249C13.1033 0.823706 11.6198 6.07836 11.6198 11.485C11.6198 12.3195 11.6554 13.104 11.7142 13.832C11.5097 13.4292 11.2942 13.0292 11.0669 12.6336C8.72195 8.55444 5.39309 5.25782 5.15921 5.02887C5.06816 4.93246 4.93021 4.889 4.79648 4.92154C4.62756 4.96254 4.50868 5.11382 4.50868 5.28756C4.50868 5.32218 4.5135 5.35639 4.52269 5.38928C4.5871 5.64493 5.75916 10.2152 8.12211 14.3263C8.60617 15.1686 9.12888 15.972 9.68526 16.731C9.34908 16.5507 9.00533 16.3805 8.65327 16.2232C5.21649 14.6875 1.45503 14.4197 1.29653 14.409C1.13876 14.3983 0.991763 14.4872 0.92731 14.6312C0.862955 14.7753 0.895157 14.9442 1.00813 15.0545C1.06005 15.1052 2.30197 16.3108 4.17112 17.5761C4.34334 17.6927 4.57761 17.6476 4.69422 17.4753C4.81084 17.303 4.76576 17.0688 4.59344 16.9522C3.69729 16.3456 2.94169 15.7453 2.40566 15.2923C3.77983 15.4851 6.15915 15.934 8.3459 16.9111C9.36565 17.3667 10.3184 17.9251 11.1788 18.5707C11.6729 19.1188 12.1105 19.5487 12.4554 19.8655C11.9097 19.8356 11.1644 19.7535 10.2862 19.5505C9.37096 19.3389 8.45888 19.0314 7.57516 18.6364C6.92748 18.347 6.2563 17.9931 5.5801 17.5844C5.40193 17.4768 5.17042 17.5339 5.0628 17.7119C4.95518 17.89 5.01226 18.1216 5.19033 18.2292C5.89298 18.6539 6.59194 19.0223 7.26774 19.3243C7.75545 19.5423 8.25165 19.7341 8.75239 19.9002C6.49479 20.7111 4.7724 22.4582 4.69624 22.5363C4.60067 22.6343 4.56576 22.7765 4.60519 22.9077C4.64457 23.0388 4.75209 23.1383 4.88591 23.1674C4.95464 23.1823 5.97641 23.3992 7.31823 23.3992C8.17638 23.3992 9.16546 23.3105 10.1197 23.0235C11.5334 22.5987 12.5127 21.8471 13.1038 21.2637V24.3524C13.1038 24.5605 13.2724 24.7291 13.4804 24.7291C13.6886 24.7291 13.8571 24.5604 13.8571 24.3524V21.2638C14.4482 21.8472 15.4275 22.5988 16.8411 23.0236C17.7956 23.3105 18.7844 23.3993 19.6427 23.3993C20.9843 23.3993 22.0064 23.1825 22.075 23.1675C22.2088 23.1383 22.3163 23.039 22.3557 22.9078C22.3951 22.7767 22.3603 22.6344 22.2647 22.5364C22.1885 22.4583 20.4661 20.7112 18.2086 19.9003C18.7092 19.7343 19.2054 19.5424 19.6931 19.3244C23.1299 17.7887 25.8391 15.1654 25.9528 15.0545ZM11.7178 18.0435C11.716 18.0415 11.7142 18.0395 11.7124 18.0375C10.6269 16.8281 9.63871 15.4532 8.77539 13.951C7.22212 11.2486 6.19499 8.34416 5.66909 6.65318C6.86927 7.96521 8.87175 10.3265 10.4138 13.009C11.0516 14.1189 11.5994 15.2628 12.0428 16.4095C12.1494 17.0141 12.2643 17.5419 12.3727 17.9835C12.4681 18.3723 12.5634 18.7167 12.6527 19.0153C12.3783 18.7499 12.0621 18.4265 11.7178 18.0435ZM9.90291 22.3021C8.3898 22.757 6.73304 22.6623 5.79824 22.5489C6.51456 21.9394 7.84266 20.9482 9.35902 20.4923C9.63241 20.41 9.91201 20.3463 10.1911 20.3011C11.2291 20.5354 12.0832 20.6115 12.6664 20.6299C12.1556 21.155 11.2449 21.8988 9.90291 22.3021ZM14.5883 17.9836C14.7192 17.4499 14.8282 16.9224 14.919 16.4074C15.3623 15.2612 15.9098 14.118 16.5471 13.0091C18.0892 10.3266 20.0917 7.96511 21.2919 6.65318C20.766 8.34416 19.7388 11.2486 18.1856 13.951C17.3222 15.4532 16.334 16.8281 15.2486 18.0375C15.2467 18.0395 15.2449 18.0415 15.2432 18.0435C14.8985 18.4269 14.5824 18.7503 14.3082 19.0156C14.3975 18.717 14.4929 18.3725 14.5883 17.9836ZM21.162 22.549C20.2269 22.6623 18.5706 22.7568 17.058 22.3021C15.7159 21.8988 14.8051 21.1549 14.2945 20.63C14.8777 20.6115 15.7318 20.5354 16.7698 20.3012C17.0489 20.3464 17.3285 20.4101 17.602 20.4923C19.1148 20.9472 20.4445 21.9391 21.162 22.549ZM16.6749 19.5505C15.7968 19.7534 15.0514 19.8356 14.5058 19.8655C14.8504 19.5489 15.2877 19.1193 15.7822 18.5707C16.6426 17.9251 17.5954 17.3667 18.615 16.9111C20.8014 15.9342 23.18 15.4853 24.5543 15.2924C23.4945 16.187 21.5746 17.6585 19.3857 18.6365C18.5021 19.0314 17.59 19.3389 16.6749 19.5505Z" fill="#CCBC00"/>
</svg>
