<svg width="22" height="29" viewBox="0 0 22 29" fill="none" xmlns="http://www.w3.org/2000/svg">
<path d="M20.8656 21.6597L15.1294 11.7585C14.8759 11.321 14.6536 9.54893 14.6536 8.70995V4.44206C15.488 4.25479 16.1138 3.50864 16.1138 2.61838C16.1138 2.58852 16.1131 2.55834 16.1115 2.5288C16.0661 1.56163 15.2482 0.832031 14.209 0.832031H7.83504C6.7692 0.832031 5.96561 1.59993 5.96561 2.61838C5.96561 3.50864 6.59102 4.25479 7.42545 4.44206V8.70995C7.42545 9.54893 7.20313 11.321 6.94998 11.7582L1.2138 21.6597C-0.63162 24.8449 1.66363 28.832 5.34733 28.832H16.7317C20.4128 28.832 22.7123 24.8475 20.8656 21.6597ZM16.7317 27.5857H5.34733C2.62659 27.5857 0.927217 24.6404 2.29197 22.2845L8.02815 12.3829C8.51758 11.5381 8.67175 9.275 8.67175 8.70995V4.48782H10.3247C10.6687 4.48782 10.9478 4.20902 10.9478 3.86467C10.9478 3.52032 10.6691 3.24153 10.3247 3.24153H7.83504C7.49134 3.24153 7.2119 2.96209 7.2119 2.61838C7.2119 2.24742 7.53483 2.07832 7.83504 2.07832H14.209C14.5144 2.07832 14.8503 2.23768 14.8668 2.5882C14.8672 2.59826 14.8675 2.60832 14.8675 2.61838C14.8675 2.96209 14.5881 3.24153 14.2444 3.24153H12.814C12.4697 3.24153 12.1909 3.52032 12.1909 3.86467C12.1909 4.20902 12.4697 4.48782 12.814 4.48782H13.4073V8.70995C13.4073 9.275 13.5615 11.5381 14.0512 12.3829L19.7871 22.2845C21.1512 24.6388 19.4548 27.5857 16.7317 27.5857Z" fill="#CCBC00"/>
<path d="M15.8174 17.9021C15.6447 17.6041 15.263 17.5029 14.9658 17.6755C14.6678 17.8482 14.5665 18.2292 14.7392 18.5272L17.5557 23.3848C17.989 24.1326 17.4505 25.0692 16.5853 25.0692H5.49362C4.62933 25.0692 4.08959 24.1332 4.52352 23.3848L7.15988 18.8378H13.2011C13.5452 18.8378 13.8243 18.5586 13.8243 18.2146C13.8243 17.8703 13.5452 17.5915 13.2011 17.5915H6.80092C6.5786 17.5915 6.37316 17.7096 6.26184 17.9017L3.44535 22.7597C2.52978 24.3383 3.66767 26.3155 5.49362 26.3155H16.5853C18.4099 26.3155 19.5498 24.3396 18.6339 22.7597L15.8174 17.9021Z" fill="#CCBC00"/>
<path d="M10.0002 20.2325C10.0002 20.5765 9.72108 20.8557 9.37705 20.8557C9.0327 20.8557 8.75391 20.5765 8.75391 20.2325C8.75391 19.8882 9.0327 19.6094 9.37705 19.6094C9.72108 19.6094 10.0002 19.8882 10.0002 20.2325Z" fill="#CCBC00"/>
<path d="M13.7424 22.3106C13.7424 22.6547 13.4636 22.9338 13.1192 22.9338C12.7752 22.9338 12.4961 22.6547 12.4961 22.3106C12.4961 21.9663 12.7752 21.6875 13.1192 21.6875C13.4636 21.6875 13.7424 21.9663 13.7424 22.3106Z" fill="#CCBC00"/>
<path d="M10.8322 23.557C10.8322 23.901 10.5534 24.1801 10.2091 24.1801C9.86505 24.1801 9.58594 23.901 9.58594 23.557C9.58594 23.2126 9.86505 22.9338 10.2091 22.9338C10.5534 22.9338 10.8322 23.2126 10.8322 23.557Z" fill="#CCBC00"/>
</svg>
