<svg width="35" height="35" viewBox="0 0 35 35" fill="none" xmlns="http://www.w3.org/2000/svg">
<g clip-path="url(#clip0)">
<circle cx="17.6538" cy="17.4084" r="16" fill="#AEDFE4"/>
<path d="M20.0718 1.20923C32.1599 13.9593 25.1085 28.0856 20.0718 33.5549L25.5816 31.8088C28.1547 30.5548 33.4085 26.4638 33.8384 20.1319C34.3758 12.2171 32.7147 9.77422 29.3924 5.91452C26.7346 2.82675 22.0712 1.49109 20.0718 1.20923Z" fill="#44888F"/>
<path d="M17.6342 0.4104C17.0247 0.4104 16.4157 0.443163 15.8097 0.508476C15.2543 0.565208 14.7057 0.658248 14.1645 0.771145C14.0598 0.793058 13.9549 0.816176 13.8502 0.840358C10.6614 1.56639 7.74959 3.19679 5.46407 5.53607C5.25154 5.75392 5.04347 5.97822 4.84002 6.20891C-1.33384 13.2967 -0.592924 24.0474 6.49496 30.2213C13.2807 36.132 23.4949 35.7387 29.8061 29.3238C30.019 29.106 30.227 28.8817 30.4301 28.651C33.1548 25.5482 34.6562 21.5593 34.6538 17.4299C34.6538 8.03022 27.0339 0.410329 17.6342 0.4104ZM6.22031 6.38705C6.30995 6.29401 6.40299 6.20494 6.49432 6.11474C6.59985 6.01092 6.7048 5.90653 6.81259 5.80611C6.90733 5.71761 7.00491 5.63251 7.10192 5.54628C7.21142 5.44927 7.32034 5.35226 7.43267 5.25865C7.53139 5.17525 7.63294 5.09526 7.73392 5.0147C7.84738 4.92393 7.96085 4.83316 8.07771 4.74579C8.18097 4.66807 8.28592 4.59262 8.39144 4.51886C8.50888 4.4349 8.62688 4.34867 8.74659 4.27038C8.85381 4.19776 8.96217 4.12741 9.07109 4.05763C9.1925 3.97991 9.31447 3.90332 9.43758 3.8307C9.54842 3.76454 9.65997 3.69944 9.7723 3.63555C9.89789 3.56406 10.024 3.49428 10.1507 3.4262C10.2642 3.36571 10.3776 3.3065 10.4911 3.24863C10.6204 3.18339 10.7509 3.12042 10.882 3.05858C10.9954 3.00469 11.1134 2.95079 11.2303 2.89973C11.3636 2.843 11.4987 2.78627 11.6337 2.72954C11.7511 2.68131 11.868 2.63423 11.9866 2.58884C12.1238 2.53665 12.2628 2.48786 12.4018 2.43907C12.5204 2.39765 12.639 2.35624 12.7592 2.31709C12.9005 2.27171 13.0429 2.22973 13.1859 2.18831C13.3056 2.15371 13.4241 2.11796 13.5444 2.08563C13.5904 2.07371 13.6363 2.06407 13.6823 2.05215C12.003 3.6827 10.7568 5.70634 10.0565 7.93981C8.70999 7.58466 7.40643 7.08301 6.16925 6.44378C6.18797 6.42392 6.20386 6.40407 6.22031 6.38705ZM5.4045 7.30044C6.76728 8.0388 8.21238 8.61392 9.7099 9.01374C8.97578 11.5664 8.59043 14.2066 8.56448 16.8626H1.76231C1.88591 13.3602 3.16671 9.99755 5.4045 7.30044ZM5.4045 27.5594C3.16685 24.8623 1.88605 21.4996 1.76231 17.9973H8.56448C8.59043 20.6532 8.97571 23.2935 9.7099 25.8461C8.21245 26.2461 6.76735 26.8211 5.4045 27.5594ZM13.541 32.7765C13.4264 32.7476 13.3078 32.7101 13.1898 32.6755C13.0463 32.6336 12.9022 32.5916 12.7604 32.5456C12.6407 32.507 12.5227 32.4656 12.4047 32.4242C12.2651 32.376 12.1255 32.3266 11.9877 32.2739C11.8697 32.2291 11.7534 32.182 11.6365 32.1343C11.5009 32.0776 11.3653 32.0209 11.2309 31.9641C11.1151 31.9131 11 31.8605 10.8854 31.8064C10.7532 31.744 10.6216 31.6805 10.4883 31.6147C10.3748 31.5579 10.2613 31.5012 10.1479 31.4393C10.0197 31.3707 9.89257 31.3004 9.76549 31.2277C9.65203 31.1648 9.54424 31.1001 9.43474 31.0343C9.30993 30.9594 9.18739 30.8822 9.06485 30.8034C8.95706 30.7347 8.84927 30.665 8.74318 30.5935C8.62234 30.5118 8.50264 30.4267 8.38407 30.3416C8.28025 30.2673 8.17643 30.1929 8.07431 30.1147C7.95688 30.0262 7.84171 29.9348 7.72711 29.8429C7.6267 29.7629 7.52685 29.6835 7.4287 29.6012C7.31524 29.5071 7.20574 29.4089 7.09568 29.3113C6.99924 29.2257 6.90223 29.1411 6.80805 29.0538C6.69969 28.9528 6.59474 28.8478 6.48922 28.744C6.39788 28.6538 6.30484 28.5647 6.2152 28.4723C6.19875 28.4547 6.18287 28.4365 6.16641 28.4195C7.40353 27.78 8.70709 27.2781 10.0537 26.9229C10.7541 29.1563 12.0002 31.1799 13.6794 32.8106C13.6335 32.7986 13.587 32.789 13.541 32.7765ZM17.0669 33.2701C14.6393 32.9252 12.5113 30.3915 11.1724 26.65C13.1081 26.2166 15.0835 25.9841 17.0669 25.9562V33.2701ZM17.0669 24.8216C14.9629 24.8492 12.8677 25.0991 10.8162 25.567C10.1038 23.1058 9.72805 20.5593 9.69912 17.9973H17.0669V24.8216ZM17.0669 16.8626H9.69912C9.72798 14.3005 10.1038 11.7541 10.8162 9.29286C12.8677 9.76069 14.9629 10.0106 17.0669 10.0383V16.8626ZM17.0669 8.90368C15.0834 8.87603 13.1081 8.64349 11.1724 8.20985C12.5113 4.46837 14.6393 1.93472 17.0669 1.58979V8.90368ZM29.8639 7.30044C32.1016 9.99762 33.3824 13.3603 33.5061 16.8626H26.704C26.678 14.2066 26.2927 11.5664 25.5586 9.01374C27.056 8.61371 28.5011 8.03866 29.8639 7.30044ZM21.7229 2.08279C21.842 2.11229 21.9606 2.14973 22.0786 2.18434C22.2221 2.22632 22.3662 2.2683 22.5081 2.31426C22.6278 2.35283 22.7458 2.39425 22.8638 2.43566C23.0033 2.48389 23.1429 2.53324 23.2808 2.586C23.3988 2.63082 23.5151 2.67791 23.6319 2.72556C23.7675 2.7823 23.9031 2.83903 24.0376 2.89576C24.1533 2.94682 24.2685 2.99937 24.3831 3.05347C24.5153 3.11588 24.6469 3.17942 24.7802 3.24523C24.8937 3.30196 25.0071 3.35869 25.1206 3.42053C25.2488 3.48918 25.3759 3.55952 25.503 3.63214C25.6164 3.69511 25.7242 3.75979 25.8337 3.8256C25.9585 3.90048 26.0811 3.97764 26.2036 4.0565C26.3114 4.12514 26.4192 4.19492 26.5253 4.26641C26.6461 4.3481 26.7652 4.43263 26.8838 4.51773C26.9882 4.59205 27.092 4.66693 27.1947 4.74466C27.3116 4.83259 27.4262 4.92393 27.5413 5.01584C27.6412 5.09526 27.7416 5.17469 27.8398 5.25751C27.9532 5.35169 28.0627 5.44984 28.1728 5.54741C28.2692 5.63308 28.3662 5.71761 28.4604 5.80498C28.5688 5.90596 28.6737 6.01092 28.7792 6.11474C28.8706 6.20494 28.9636 6.29401 29.0532 6.38648C29.0697 6.40407 29.0856 6.42222 29.102 6.43924C27.8649 7.07875 26.5614 7.58062 25.2148 7.93583C24.513 5.70215 23.2652 3.67873 21.5845 2.04875C21.6304 2.06066 21.6769 2.07031 21.7229 2.08279ZM18.2015 1.58979C20.6291 1.93472 22.7571 4.46837 24.096 8.20985C22.1603 8.64328 20.185 8.87581 18.2015 8.90368V1.58979ZM18.2015 10.0383C20.3056 10.0107 22.4008 9.76076 24.4523 9.29286C25.1646 11.7541 25.5404 14.3005 25.5693 16.8626H18.2015V10.0383ZM18.2015 17.9973H25.5693C25.5405 20.5593 25.1647 23.1058 24.4523 25.567C22.4008 25.0992 20.3056 24.8493 18.2015 24.8216V17.9973ZM18.2015 33.2701V25.9562C20.185 25.9839 22.1603 26.2164 24.096 26.65C22.7571 30.3915 20.6291 32.9252 18.2015 33.2701ZM29.0481 28.4728C28.9585 28.5653 28.866 28.6544 28.7747 28.7446C28.6692 28.8484 28.5637 28.9534 28.4553 29.0543C28.3611 29.1423 28.2641 29.2245 28.1677 29.3125C28.0576 29.41 27.9481 29.5076 27.8358 29.6018C27.7365 29.6846 27.6355 29.7646 27.5345 29.8452C27.4211 29.9359 27.3076 30.0267 27.1907 30.1141C27.0875 30.1918 26.9825 30.2673 26.877 30.341C26.7596 30.425 26.6416 30.5112 26.5219 30.5895C26.4146 30.6621 26.3063 30.7325 26.1974 30.8017C26.076 30.88 25.9536 30.9556 25.8303 31.0286C25.7168 31.095 25.6085 31.1597 25.4967 31.2238C25.3711 31.2952 25.2448 31.365 25.1177 31.4331C25.0043 31.4936 24.8908 31.5528 24.7774 31.6107C24.648 31.6759 24.5175 31.7389 24.3865 31.8007C24.273 31.8546 24.155 31.9085 24.0381 31.9596C23.9048 32.0163 23.7698 32.073 23.6348 32.1298C23.5173 32.1774 23.4005 32.2251 23.2825 32.2699C23.144 32.3227 23.005 32.372 22.8655 32.4202C22.7475 32.4617 22.6295 32.5031 22.5098 32.5417C22.3679 32.5876 22.2261 32.6296 22.0814 32.671C21.9629 32.7062 21.8437 32.7413 21.724 32.7737C21.6781 32.7856 21.6321 32.7952 21.5862 32.8072C23.2654 31.1766 24.5116 29.153 25.2119 26.9195C26.5585 27.2747 27.862 27.7763 29.0992 28.4155C29.0805 28.436 29.0646 28.4558 29.0481 28.4728ZM29.8639 27.5594C28.5012 26.8211 27.0561 26.246 25.5586 25.8461C26.2927 23.2935 26.678 20.6532 26.704 17.9973H33.5061C33.3826 21.4996 32.1017 24.8623 29.8639 27.5594Z" fill="#282D2D"/>
</g>
<defs>
<clipPath id="clip0">
<rect width="34" height="34" fill="white" transform="translate(0.654297 0.408203)"/>
</clipPath>
</defs>
</svg>
