<svg width="44" height="43" viewBox="0 0 44 43" fill="none" xmlns="http://www.w3.org/2000/svg">
<g clip-path="url(#clip0)">
<path d="M39.9396 2.05103C37.9763 2.05103 36.379 3.6111 36.379 5.52874V5.80207L11.1171 12.46C10.7434 12.5584 10.4837 12.8896 10.4837 13.2677V14.1389H6.0365C2.98367 14.1389 0.5 16.5648 0.5 19.5466C0.5 22.5285 2.98367 24.9544 6.0365 24.9544H10.4837V25.8255C10.4837 25.9208 10.5003 26.013 10.5309 26.0993L12.5636 38.6164H12.5637C12.8649 40.4705 14.4784 41.8163 16.4004 41.8163H19.6243C20.0972 41.8163 20.4808 41.4418 20.4808 40.9797V29.1011L36.379 33.2911V33.5645C36.379 35.4821 37.9763 37.0422 39.9396 37.0422C41.9029 37.0422 43.5 35.482 43.5 33.5644V5.52874C43.5 3.6111 41.9029 2.05103 39.9396 2.05103ZM10.4837 17.2878H8.0124C7.5394 17.2878 7.15585 17.6624 7.15585 18.1245C7.15585 18.5866 7.5394 18.9611 8.0124 18.9611H10.4837V20.132H8.0124C7.5394 20.132 7.15585 20.5066 7.15585 20.9687C7.15585 21.4307 7.5394 21.8053 8.0124 21.8053H10.4837V23.281H6.0365C3.92833 23.281 2.2132 21.6056 2.2132 19.5465C2.2132 17.4874 3.92833 15.8122 6.0365 15.8122H10.4837V17.2878ZM18.7676 40.1431H16.4003C15.3259 40.1431 14.4239 39.3907 14.2555 38.3542H14.2555L12.4142 27.0152L18.7676 28.6495V40.1431ZM36.379 31.5578L12.1968 25.1846V13.9086L36.379 7.53531V31.5578ZM41.7868 33.5644C41.7868 34.5593 40.958 35.3688 39.9395 35.3688C38.9208 35.3688 38.0921 34.5593 38.0921 33.5644V5.52874C38.0921 4.53378 38.9208 3.7243 39.9395 3.7243C40.9581 3.7243 41.7868 4.53378 41.7868 5.52874V33.5644Z" fill="#212121"/>
<path d="M34.6437 28.2793L33.9315 28.0916C33.4745 27.9713 33.0046 28.2352 32.8814 28.6813C32.7581 29.1274 33.0284 29.5867 33.4851 29.707L34.1973 29.8948C34.2721 29.9145 34.3472 29.9239 34.421 29.9239C34.7986 29.9239 35.1443 29.678 35.2474 29.305C35.3708 28.859 35.1006 28.3997 34.6437 28.2793Z" fill="#212121"/>
<path d="M31.15 27.3583L14.486 22.9663C14.0289 22.846 13.559 23.1101 13.4358 23.5561C13.3125 24.0022 13.5829 24.4615 14.0396 24.5819L30.7037 28.9738C30.7784 28.9935 30.8535 29.0029 30.9273 29.0029C31.3049 29.0029 31.6507 28.7571 31.7537 28.3841C31.8771 27.9379 31.6068 27.4786 31.15 27.3583Z" fill="#212121"/>
</g>
<defs>
<clipPath id="clip0">
<rect width="43" height="42" fill="white" transform="translate(0.5 0.933594)"/>
</clipPath>
</defs>
</svg>
