<svg width="51" height="49" viewBox="0 0 51 49" fill="none" xmlns="http://www.w3.org/2000/svg">
<g clip-path="url(#clip0)">
<path d="M41.6649 27.5525L34.1992 16.3172C35.257 15.7835 35.9805 14.7186 35.9805 13.494C35.9805 12.1536 35.1138 11.0045 33.8904 10.5341L36.152 2.9433C36.2496 2.61581 36.1545 2.26338 35.9037 2.02252C34.3992 0.578312 31.9514 0.578312 30.4469 2.02252C30.087 2.36801 29.6086 2.55824 29.0997 2.55824C28.5907 2.55824 28.1123 2.36801 27.7502 2.02027L27.7454 2.01568C26.2463 0.576343 23.8027 0.572311 22.2975 2.00715L22.2695 2.03396C21.5265 2.7421 20.3199 2.74004 19.5797 2.02937L19.5726 2.02252C18.0681 0.578312 15.6203 0.578312 14.1158 2.02252C13.8649 2.26357 13.7698 2.61628 13.8676 2.94396L16.1341 10.5324C14.9081 11.0015 14.039 12.1518 14.039 13.4941C14.039 14.7187 14.7625 15.7836 15.8203 16.3173L8.35456 27.5525C5.4663 31.899 5.28328 37.193 7.86498 41.7138C10.4467 46.2346 15.1942 48.9336 20.5648 48.9336H29.4546C34.825 48.9336 39.5726 46.2346 42.1544 41.7138C44.7361 37.193 44.5531 31.899 41.6649 27.5525ZM18.1914 3.34842L18.1985 3.35526C19.6978 4.7945 22.1413 4.79844 23.6464 3.36379L23.6744 3.33698C24.4172 2.62884 25.6239 2.6309 26.3664 3.34373L26.3712 3.34832C27.8757 4.79254 30.3235 4.79254 31.828 3.34832C32.4401 2.76066 33.3686 2.65725 34.0921 3.03809L31.9267 10.3063H18.0987L15.9277 3.03799C16.6512 2.65725 17.5793 2.76085 18.1914 3.34842ZM40.4417 40.8124C38.2081 44.7235 34.1008 47.0586 29.4547 47.0586H20.5649C15.9187 47.0586 11.8114 44.7236 9.57787 40.8124C7.34434 36.9013 7.50265 32.3214 10.0013 28.5609L17.8949 16.6817H20.615C21.1544 16.6817 21.5916 16.2619 21.5916 15.7441C21.5916 15.2263 21.1544 14.8066 20.615 14.8066H17.3595C16.6055 14.8066 15.9922 14.2178 15.9922 13.494C15.9922 12.7702 16.6055 12.1814 17.3595 12.1814H17.3627H32.6599C33.4139 12.1814 34.0272 12.7702 34.0272 13.494C34.0272 14.2178 33.4139 14.8066 32.6599 14.8066H29.4046C28.8652 14.8066 28.4279 15.2263 28.4279 15.7441C28.4279 16.2619 28.8652 16.6817 29.4046 16.6817H32.1246L40.0182 28.5609C42.5169 32.3213 42.6752 36.9012 40.4417 40.8124Z" fill="#212121"/>
<path d="M26.7334 31.553C26.4884 31.4698 26.2383 31.3833 25.9882 31.2933V27.0442C26.6504 27.2312 27.0926 27.5345 27.1114 27.5476C27.541 27.8565 28.1505 27.7746 28.4751 27.3633C28.8008 26.9506 28.7163 26.3625 28.2864 26.0498C28.2291 26.0081 27.321 25.361 25.9882 25.116V24.1829C25.9882 23.6651 25.551 23.2454 25.0116 23.2454C24.4722 23.2454 24.035 23.6651 24.035 24.1829V25.1092C23.8696 25.1397 23.7019 25.1782 23.5319 25.2273C22.1574 25.6238 21.13 26.7522 20.8506 28.1722C20.5956 29.4689 21.0284 30.7195 21.98 31.4359C22.4964 31.8248 23.1417 32.1798 24.035 32.5569V37.9943C23.2659 37.9477 22.7514 37.7796 21.8937 37.241C21.4425 36.9574 20.837 37.079 20.5418 37.5123C20.2465 37.9457 20.373 38.5267 20.8244 38.8102C22.0751 39.5956 22.9219 39.8181 24.035 39.8707V40.8402C24.035 41.358 24.4722 41.7778 25.0116 41.7778C25.551 41.7778 25.9882 41.358 25.9882 40.8402V39.7733C28.0796 39.3336 29.3027 37.6582 29.5771 36.091C29.9358 34.0421 28.8197 32.2608 26.7334 31.553ZM23.1854 29.9604C22.81 29.6777 22.6508 29.1258 22.77 28.5201C22.8795 27.963 23.27 27.2912 24.035 27.0427V30.4763C23.7139 30.3119 23.4241 30.1402 23.1854 29.9604ZM27.6508 35.78C27.5102 36.583 26.9456 37.4347 25.9881 37.8111V33.2884C26.02 33.2992 26.0502 33.3098 26.0824 33.3208C27.8334 33.9149 27.7256 35.3533 27.6508 35.78Z" fill="#212121"/>
<path d="M25.0118 16.6818C25.2686 16.6818 25.5206 16.5814 25.7023 16.4071C25.8839 16.2327 25.9884 15.9908 25.9884 15.7442C25.9884 15.4976 25.8839 15.2557 25.7023 15.0813C25.5206 14.907 25.2686 14.8066 25.0118 14.8066C24.7549 14.8066 24.503 14.907 24.3213 15.0813C24.1397 15.2557 24.0352 15.4976 24.0352 15.7442C24.0352 15.9908 24.1397 16.2327 24.3213 16.4071C24.503 16.5814 24.7548 16.6818 25.0118 16.6818Z" fill="#212121"/>
</g>
<defs>
<clipPath id="clip0">
<rect width="50" height="48" fill="white" transform="translate(0.0117188 0.933594)"/>
</clipPath>
</defs>
</svg>
