<svg width="597" height="394" viewBox="0 0 597 394" fill="none" xmlns="http://www.w3.org/2000/svg">
<path d="M48.3402 366.191C48.0863 366.191 47.8428 366.091 47.6632 365.911C47.4837 365.731 47.3828 365.488 47.3828 365.234V31.5101C47.3828 31.2562 47.4837 31.0127 47.6632 30.8331C47.8428 30.6536 48.0863 30.5527 48.3402 30.5527C48.5941 30.5527 48.8376 30.6536 49.0172 30.8331C49.1967 31.0127 49.2976 31.2562 49.2976 31.5101V365.234C49.2976 365.488 49.1967 365.731 49.0172 365.911C48.8376 366.091 48.5941 366.191 48.3402 366.191Z" fill="#D1D3D4"/>
<path d="M177.883 366.191C177.629 366.191 177.386 366.091 177.206 365.911C177.027 365.731 176.926 365.488 176.926 365.234V31.5101C176.926 31.2562 177.027 31.0127 177.206 30.8331C177.386 30.6536 177.629 30.5527 177.883 30.5527C178.137 30.5527 178.381 30.6536 178.56 30.8331C178.74 31.0127 178.841 31.2562 178.841 31.5101V365.234C178.841 365.488 178.74 365.731 178.56 365.911C178.381 366.091 178.137 366.191 177.883 366.191Z" fill="#D1D3D4"/>
<path d="M307.411 366.191C307.157 366.191 306.914 366.09 306.734 365.91C306.554 365.731 306.454 365.487 306.454 365.233V31.5094C306.454 31.2555 306.554 31.012 306.734 30.8324C306.914 30.6529 307.157 30.552 307.411 30.552C307.665 30.552 307.908 30.6529 308.088 30.8324C308.267 31.012 308.368 31.2555 308.368 31.5094V365.233C308.368 365.487 308.267 365.731 308.088 365.91C307.908 366.09 307.665 366.191 307.411 366.191Z" fill="#D1D3D4"/>
<path d="M436.942 366.191C436.688 366.191 436.444 366.091 436.265 365.911C436.085 365.731 435.984 365.488 435.984 365.234V31.5101C435.984 31.2562 436.085 31.0127 436.265 30.8331C436.444 30.6536 436.688 30.5527 436.942 30.5527C437.196 30.5527 437.439 30.6536 437.619 30.8331C437.798 31.0127 437.899 31.2562 437.899 31.5101V365.234C437.899 365.488 437.798 365.731 437.619 365.911C437.439 366.091 437.196 366.191 436.942 366.191Z" fill="#D1D3D4"/>
<path d="M566.481 366.191C566.227 366.191 565.983 366.09 565.804 365.91C565.624 365.731 565.523 365.487 565.523 365.233V31.5094C565.523 31.2555 565.624 31.012 565.804 30.8324C565.983 30.6529 566.227 30.552 566.481 30.552C566.735 30.552 566.978 30.6529 567.158 30.8324C567.337 31.012 567.438 31.2555 567.438 31.5094V365.233C567.438 365.487 567.337 365.731 567.158 365.91C566.978 366.09 566.735 366.191 566.481 366.191Z" fill="#D1D3D4"/>
<path d="M566.475 32.4675H48.3402C48.0863 32.4675 47.8428 32.3666 47.6632 32.1871C47.4837 32.0075 47.3828 31.764 47.3828 31.5101C47.3828 31.2562 47.4837 31.0127 47.6632 30.8331C47.8428 30.6536 48.0863 30.5527 48.3402 30.5527H566.475C566.729 30.5527 566.972 30.6536 567.152 30.8331C567.331 31.0127 567.432 31.2562 567.432 31.5101C567.432 31.764 567.331 32.0075 567.152 32.1871C566.972 32.3666 566.729 32.4675 566.475 32.4675Z" fill="#D1D3D4"/>
<path d="M566.475 142.854H48.3402C48.0863 142.854 47.8428 142.753 47.6632 142.574C47.4837 142.394 47.3828 142.151 47.3828 141.897C47.3828 141.643 47.4837 141.399 47.6632 141.22C47.8428 141.04 48.0863 140.939 48.3402 140.939H566.475C566.729 140.939 566.972 141.04 567.152 141.22C567.331 141.399 567.432 141.643 567.432 141.897C567.432 142.151 567.331 142.394 567.152 142.574C566.972 142.753 566.729 142.854 566.475 142.854Z" fill="#D1D3D4"/>
<path d="M566.475 253.143H48.3402C48.0863 253.143 47.8428 253.042 47.6632 252.863C47.4837 252.683 47.3828 252.44 47.3828 252.186C47.3828 251.932 47.4837 251.688 47.6632 251.509C47.8428 251.329 48.0863 251.229 48.3402 251.229H566.475C566.729 251.229 566.972 251.329 567.152 251.509C567.331 251.688 567.432 251.932 567.432 252.186C567.432 252.44 567.331 252.683 567.152 252.863C566.972 253.042 566.729 253.143 566.475 253.143Z" fill="#D1D3D4"/>
<path d="M596.043 367.149H1.35582C1.10191 367.149 0.858391 367.048 0.678847 366.868C0.499303 366.689 0.398438 366.445 0.398438 366.191C0.398438 365.937 0.499303 365.694 0.678847 365.514C0.858391 365.335 1.10191 365.234 1.35582 365.234H596.043C596.297 365.234 596.54 365.335 596.72 365.514C596.899 365.694 597 365.937 597 366.191C597 366.445 596.899 366.689 596.72 366.868C596.54 367.048 596.297 367.149 596.043 367.149Z" fill="#D1D3D4"/>
<path d="M12.9421 366.191H172.289L522.154 110.379L547.18 144.73L588.041 4.22458L441.753 0.03125L466.779 34.3821L12.9421 366.191Z" fill="#FDDC37"/>
<path d="M81.6406 353.113V376.722C81.6406 385.664 107.184 392.921 138.701 392.921C170.218 392.921 195.741 385.664 195.741 376.722V353.113H81.6406Z" fill="white"/>
<path d="M138.701 393.879C106.15 393.879 80.6836 386.335 80.6836 376.646V353.114C80.6836 352.86 80.7845 352.616 80.964 352.437C81.1435 352.257 81.3871 352.156 81.641 352.156H195.742C195.996 352.156 196.239 352.257 196.419 352.437C196.598 352.616 196.699 352.86 196.699 353.114V376.723C196.699 386.335 171.233 393.879 138.701 393.879ZM82.5984 354.071V376.723C82.5984 384.075 105.135 392.041 138.701 392.041C172.267 392.041 194.784 384.152 194.784 376.723V354.071H82.5984Z" fill="#212121"/>
<path d="M138.701 369.291C170.214 369.291 195.76 362.047 195.76 353.111C195.76 344.176 170.214 336.932 138.701 336.932C107.187 336.932 81.6406 344.176 81.6406 353.111C81.6406 362.047 107.187 369.291 138.701 369.291Z" fill="#212121"/>
<path d="M138.7 370.154C106.149 370.154 80.7974 362.667 80.7974 353.113C80.7974 343.558 106.225 336.091 138.7 336.091C171.174 336.091 196.583 343.577 196.583 353.113C196.583 362.648 171.155 370.154 138.7 370.154ZM138.7 337.776C105.077 337.776 82.4824 345.703 82.4824 353.094C82.4824 360.485 105.077 368.412 138.7 368.412C172.323 368.412 194.898 360.485 194.898 353.094C194.898 345.703 172.323 337.776 138.7 337.776Z" fill="#212121"/>
<path d="M95.0859 320.754V344.363C95.0859 353.305 120.629 360.543 152.127 360.543C183.625 360.543 209.187 353.305 209.187 344.363V320.754H95.0859Z" fill="white"/>
<path d="M152.119 361.5C119.568 361.5 94.1211 353.975 94.1211 344.363V320.754C94.1211 320.5 94.222 320.257 94.4015 320.077C94.581 319.898 94.8246 319.797 95.0785 319.797H209.179C209.433 319.797 209.677 319.898 209.856 320.077C210.036 320.257 210.137 320.5 210.137 320.754V344.363C210.137 353.975 184.651 361.5 152.119 361.5ZM96.0359 321.712V344.363C96.0359 351.716 118.573 359.586 152.119 359.586C185.666 359.586 208.222 351.716 208.222 344.363V321.712H96.0359Z" fill="#212121"/>
<path d="M152.126 336.934C183.64 336.934 209.186 329.69 209.186 320.754C209.186 311.818 183.64 304.574 152.126 304.574C120.613 304.574 95.0664 311.818 95.0664 320.754C95.0664 329.69 120.613 336.934 152.126 336.934Z" fill="#212121"/>
<path d="M152.126 337.777C119.575 337.777 94.2432 330.31 94.2432 320.755C94.2432 311.2 119.671 303.694 152.126 303.694C184.582 303.694 210.029 311.162 210.029 320.717C210.029 330.271 184.601 337.777 152.126 337.777ZM152.126 305.418C118.503 305.418 95.9281 313.345 95.9281 320.736C95.9281 328.127 118.503 336.054 152.126 336.054C185.75 336.054 208.344 328.127 208.344 320.736C208.344 313.345 185.73 305.418 152.126 305.418Z" fill="#212121"/>
<path d="M83.4023 284.682V308.291C83.4023 317.233 108.945 324.47 140.462 324.47C171.979 324.47 197.522 317.233 197.522 308.291V284.682H83.4023Z" fill="white"/>
<path d="M140.467 325.428C107.916 325.428 82.4492 317.903 82.4492 308.291V284.682C82.4492 284.428 82.5501 284.185 82.7296 284.005C82.9092 283.825 83.1527 283.725 83.4066 283.725H197.526C197.78 283.725 198.024 283.825 198.203 284.005C198.383 284.185 198.484 284.428 198.484 284.682V308.291C198.484 317.903 172.998 325.428 140.467 325.428ZM84.364 285.639V308.291C84.364 315.644 106.901 323.513 140.467 323.513C174.032 323.513 196.569 315.644 196.569 308.291V285.639H84.364Z" fill="#212121"/>
<path d="M140.462 300.861C171.976 300.861 197.522 293.618 197.522 284.682C197.522 275.746 171.976 268.502 140.462 268.502C108.949 268.502 83.4023 275.746 83.4023 284.682C83.4023 293.618 108.949 300.861 140.462 300.861Z" fill="white"/>
<path d="M140.467 301.78C107.916 301.78 82.4492 294.255 82.4492 284.547C82.4492 274.839 107.935 267.41 140.467 267.41C172.998 267.41 198.484 274.935 198.484 284.547C198.484 294.159 172.998 301.78 140.467 301.78ZM140.467 269.421C106.901 269.421 84.364 277.29 84.364 284.643C84.364 291.996 106.901 299.961 140.467 299.961C174.032 299.961 196.569 292.091 196.569 284.643C196.569 277.195 174.013 269.459 140.467 269.459V269.421Z" fill="#212121"/>
<path d="M140.463 295.44C116.797 295.44 91.6367 291.611 91.6367 284.68C91.6367 277.748 116.797 273.899 140.463 273.899C164.13 273.899 189.27 277.729 189.27 284.68C189.27 291.63 164.13 295.44 140.463 295.44ZM140.463 275.814C112.814 275.814 93.5515 280.486 93.5515 284.68C93.5515 288.873 112.814 293.526 140.463 293.526C168.112 293.526 187.356 288.873 187.356 284.68C187.356 280.486 168.093 275.814 140.463 275.814Z" fill="#D1D3D4"/>
<path d="M236.492 352.979V376.588C236.492 385.53 262.035 392.787 293.552 392.787C325.069 392.787 350.612 385.53 350.612 376.588V352.979H236.492Z" fill="white"/>
<path d="M293.553 393.687C261.002 393.687 235.536 386.143 235.536 376.454V352.979C235.541 352.727 235.643 352.486 235.822 352.308C236 352.129 236.241 352.027 236.493 352.022H350.613C350.865 352.027 351.106 352.129 351.284 352.308C351.463 352.486 351.565 352.727 351.57 352.979V376.588C351.57 386.2 326.085 393.687 293.553 393.687ZM237.431 353.937V376.588C237.431 383.96 259.987 391.906 293.534 391.906C327.08 391.906 349.636 384.037 349.636 376.588V353.937H237.431Z" fill="#212121"/>
<path d="M293.552 369.159C325.065 369.159 350.612 361.915 350.612 352.98C350.612 344.044 325.065 336.8 293.552 336.8C262.039 336.8 236.492 344.044 236.492 352.98C236.492 361.915 262.039 369.159 293.552 369.159Z" fill="#212121"/>
<path d="M293.548 370.019C260.997 370.019 235.646 362.533 235.646 352.978C235.646 343.423 261.074 335.956 293.548 335.956C326.022 335.956 351.45 343.443 351.45 352.978C351.45 362.514 326.022 370.019 293.548 370.019ZM293.548 337.641C259.925 337.641 237.33 345.587 237.33 352.959C237.33 360.331 259.925 368.277 293.548 368.277C327.171 368.277 349.765 360.35 349.765 352.959C349.765 345.568 327.171 337.641 293.548 337.641Z" fill="#212121"/>
<path d="M229.063 325.007V348.616C229.063 357.558 254.625 364.796 286.123 364.796C317.621 364.796 343.183 357.558 343.183 348.616V325.007H229.063Z" fill="white"/>
<path d="M286.123 365.753C253.572 365.753 228.106 358.228 228.106 348.616V325.007C228.106 324.753 228.207 324.51 228.386 324.33C228.566 324.151 228.809 324.05 229.063 324.05H343.183C343.437 324.05 343.681 324.151 343.86 324.33C344.04 324.51 344.141 324.753 344.141 325.007V348.616C344.141 358.228 318.655 365.753 286.123 365.753ZM230.021 325.965V348.616C230.021 355.969 252.577 363.839 286.123 363.839C319.67 363.839 342.226 355.969 342.226 348.616V325.965H230.021Z" fill="#212121"/>
<path d="M286.123 341.185C317.636 341.185 343.183 333.941 343.183 325.005C343.183 316.069 317.636 308.825 286.123 308.825C254.61 308.825 229.063 316.069 229.063 325.005C229.063 333.941 254.61 341.185 286.123 341.185Z" fill="#212121"/>
<path d="M286.117 341.99C253.566 341.99 228.215 334.503 228.215 324.968C228.215 315.432 253.662 307.945 286.117 307.945C318.572 307.945 344.02 315.413 344.02 324.968C344.02 334.522 318.592 341.99 286.117 341.99ZM286.117 309.63C252.494 309.63 229.919 317.557 229.919 324.948C229.919 332.339 252.494 340.267 286.117 340.267C319.74 340.267 342.335 332.339 342.335 324.948C342.335 317.557 319.76 309.669 286.117 309.669V309.63Z" fill="#212121"/>
<path d="M238.269 290.903V314.531C238.269 323.454 263.811 330.711 295.309 330.711C326.807 330.711 352.369 323.454 352.369 314.531V290.903H238.269Z" fill="white"/>
<path d="M295.31 331.669C262.759 331.669 237.312 324.125 237.312 314.436V290.904C237.312 290.65 237.412 290.406 237.592 290.227C237.771 290.047 238.015 289.946 238.269 289.946H352.312C352.566 289.946 352.81 290.047 352.989 290.227C353.169 290.406 353.27 290.65 353.27 290.904V314.532C353.327 324.125 327.841 331.669 295.31 331.669ZM239.226 291.861V314.532C239.226 321.885 261.763 329.85 295.31 329.85C328.856 329.85 351.412 321.98 351.412 314.532V291.861H239.226Z" fill="#212121"/>
<path d="M295.306 307.084C326.82 307.084 352.366 299.84 352.366 290.904C352.366 281.968 326.82 274.724 295.306 274.724C263.793 274.724 238.247 281.968 238.247 290.904C238.247 299.84 263.793 307.084 295.306 307.084Z" fill="#212121"/>
<path d="M295.309 307.944C262.854 307.944 237.426 300.458 237.426 290.903C237.426 281.348 262.854 273.881 295.309 273.881C327.764 273.881 353.211 281.368 353.211 290.903C353.211 300.439 327.783 307.944 295.309 307.944ZM295.309 275.566C261.686 275.566 239.111 283.512 239.111 290.884C239.111 298.256 261.686 306.202 295.309 306.202C328.932 306.202 351.526 298.275 351.526 290.884C351.526 283.493 328.932 275.566 295.309 275.566Z" fill="#212121"/>
<path d="M229.063 256.684V280.293C229.063 289.235 254.625 296.473 286.123 296.473C317.621 296.473 343.183 289.235 343.183 280.293V256.684H229.063Z" fill="white"/>
<path d="M286.123 297.431C253.572 297.431 228.106 289.906 228.106 280.294V256.685C228.111 256.432 228.213 256.192 228.392 256.013C228.57 255.835 228.811 255.732 229.063 255.727H343.183C343.437 255.727 343.681 255.828 343.86 256.008C344.04 256.187 344.141 256.431 344.141 256.685V280.294C344.141 289.906 318.655 297.431 286.123 297.431ZM230.021 257.738V280.389C230.021 287.742 252.577 295.612 286.123 295.612C319.67 295.612 342.226 287.742 342.226 280.389V257.738H230.021Z" fill="#212121"/>
<path d="M286.123 272.865C317.636 272.865 343.183 265.621 343.183 256.685C343.183 247.749 317.636 240.505 286.123 240.505C254.61 240.505 229.063 247.749 229.063 256.685C229.063 265.621 254.61 272.865 286.123 272.865Z" fill="#212121"/>
<path d="M286.117 273.709C253.566 273.709 228.215 266.241 228.215 256.686C228.215 247.132 253.662 239.664 286.117 239.664C318.572 239.664 344.02 247.151 344.02 256.686C344.02 266.222 318.592 273.709 286.117 273.709ZM286.117 241.349C252.494 241.349 229.919 249.276 229.919 256.667C229.919 264.058 252.494 271.985 286.117 271.985C319.74 271.985 342.335 264.058 342.335 256.667C342.335 249.276 319.76 241.349 286.117 241.349Z" fill="#212121"/>
<path d="M247.465 228.709V252.318C247.465 261.241 273.008 268.498 304.525 268.498C336.042 268.498 361.566 261.241 361.566 252.318V228.709H247.465Z" fill="white"/>
<path d="M304.443 269.455C271.892 269.455 246.426 261.93 246.426 252.223V228.709C246.426 228.455 246.527 228.212 246.706 228.032C246.886 227.853 247.129 227.752 247.383 227.752H361.484C361.738 227.752 361.981 227.853 362.161 228.032C362.34 228.212 362.441 228.455 362.441 228.709V252.318C362.518 261.93 336.994 269.455 304.443 269.455ZM248.341 229.667V252.318C248.341 259.671 270.877 267.636 304.443 267.636C338.009 267.636 360.526 259.767 360.526 252.318V229.667H248.341Z" fill="#212121"/>
<path d="M304.525 244.893C336.038 244.893 361.585 237.649 361.585 228.713C361.585 219.777 336.038 212.533 304.525 212.533C273.011 212.533 247.465 219.777 247.465 228.713C247.465 237.649 273.011 244.893 304.525 244.893Z" fill="#212121"/>
<path d="M304.449 245.732C271.898 245.732 246.547 238.245 246.547 228.69C246.547 219.136 271.975 211.668 304.449 211.668C336.924 211.668 362.333 219.155 362.333 228.69C362.333 238.226 337 245.732 304.449 245.732ZM304.449 213.353C270.826 213.353 248.232 221.299 248.232 228.671C248.232 236.043 270.826 243.989 304.449 243.989C338.073 243.989 360.648 236.043 360.648 228.671C360.648 221.299 338.149 213.353 304.449 213.353Z" fill="#212121"/>
<path d="M234.938 200.719V224.328C234.938 233.27 260.48 240.508 291.997 240.508C323.514 240.508 349.057 233.27 349.057 224.328V200.719H234.938Z" fill="white"/>
<path d="M291.998 241.465C259.447 241.465 233.98 233.94 233.98 224.328V200.719C233.98 200.465 234.081 200.222 234.261 200.042C234.44 199.863 234.684 199.762 234.938 199.762H349.058C349.312 199.762 349.555 199.863 349.735 200.042C349.914 200.222 350.015 200.465 350.015 200.719V224.328C350.015 233.94 324.53 241.465 291.998 241.465ZM235.895 201.676V224.328C235.895 231.681 258.432 239.55 291.998 239.55C325.564 239.55 348.1 231.681 348.1 224.328V201.676H235.895Z" fill="#212121"/>
<path d="M291.997 216.897C323.511 216.897 349.057 209.653 349.057 200.717C349.057 191.781 323.511 184.537 291.997 184.537C260.484 184.537 234.938 191.781 234.938 200.717C234.938 209.653 260.484 216.897 291.997 216.897Z" fill="white"/>
<path d="M291.998 217.854C259.447 217.854 233.98 210.329 233.98 200.717C233.98 191.105 259.466 183.58 291.998 183.58C324.53 183.58 350.015 191.105 350.015 200.717C350.015 210.329 324.53 217.854 291.998 217.854ZM291.998 185.495C258.432 185.495 235.895 193.365 235.895 200.717C235.895 208.07 258.432 215.94 291.998 215.94C325.564 215.94 348.1 208.07 348.1 200.717C348.1 193.365 325.506 185.495 291.998 185.495Z" fill="#212121"/>
<path d="M291.995 211.478C268.328 211.478 243.168 207.649 243.168 200.717C243.168 193.786 268.328 189.937 291.995 189.937C315.661 189.937 340.802 193.767 340.802 200.717C340.802 207.668 315.661 211.478 291.995 211.478ZM291.995 191.852C264.346 191.852 245.083 196.524 245.083 200.717C245.083 204.91 264.346 209.563 291.995 209.563C319.644 209.563 338.907 204.91 338.907 200.717C338.907 196.524 319.625 191.852 291.995 191.852Z" fill="#D1D3D4"/>
<path d="M508.328 352.979V376.588C508.328 385.53 482.785 392.787 451.287 392.787C419.79 392.787 394.228 385.53 394.228 376.588V352.979H508.328Z" fill="white"/>
<path d="M451.288 393.687C418.737 393.687 393.271 386.143 393.271 376.454V352.979C393.271 352.725 393.371 352.482 393.551 352.302C393.73 352.123 393.974 352.022 394.228 352.022H508.329C508.582 352.022 508.826 352.123 509.006 352.302C509.185 352.482 509.286 352.725 509.286 352.979V376.588C509.324 386.2 483.8 393.687 451.288 393.687ZM395.185 353.879V376.531C395.185 383.903 417.722 391.849 451.288 391.849C484.854 391.849 507.371 383.979 507.371 376.531V353.937L395.185 353.879Z" fill="#212121"/>
<path d="M451.287 369.159C482.801 369.159 508.347 361.915 508.347 352.98C508.347 344.044 482.801 336.8 451.287 336.8C419.774 336.8 394.228 344.044 394.228 352.98C394.228 361.915 419.774 369.159 451.287 369.159Z" fill="#212121"/>
<path d="M451.281 370.019C418.73 370.019 393.379 362.532 393.379 352.977C393.379 343.423 418.807 335.955 451.281 335.955C483.756 335.955 509.165 343.442 509.165 352.977C509.165 362.513 483.737 370.019 451.281 370.019ZM451.281 337.64C417.639 337.64 395.064 345.586 395.064 352.958C395.064 360.33 417.639 368.276 451.281 368.276C484.924 368.276 507.48 360.349 507.48 352.958C507.48 345.567 484.905 337.64 451.281 337.64Z" fill="#212121"/>
<path d="M515.753 325.006V348.615C515.753 357.557 490.21 364.795 458.693 364.795C427.176 364.795 401.652 357.557 401.652 348.615V325.006H515.753Z" fill="white"/>
<path d="M458.692 365.753C426.142 365.753 400.694 358.228 400.694 348.616V325.007C400.694 324.753 400.795 324.51 400.975 324.33C401.154 324.151 401.398 324.05 401.652 324.05H515.752C516.006 324.05 516.25 324.151 516.429 324.33C516.609 324.51 516.71 324.753 516.71 325.007V348.616C516.71 358.228 491.224 365.753 458.692 365.753ZM402.609 325.965V348.616C402.609 355.969 425.146 363.839 458.692 363.839C492.239 363.839 514.795 355.969 514.795 348.616V325.965H402.609Z" fill="#212121"/>
<path d="M458.7 341.185C490.213 341.185 515.76 333.941 515.76 325.005C515.76 316.069 490.213 308.825 458.7 308.825C427.187 308.825 401.64 316.069 401.64 325.005C401.64 333.941 427.187 341.185 458.7 341.185Z" fill="#212121"/>
<path d="M458.699 341.99C426.243 341.99 400.815 334.503 400.815 324.968C400.815 315.432 426.243 307.945 458.699 307.945C491.154 307.945 516.601 315.413 516.601 324.968C516.601 334.522 491.173 341.99 458.699 341.99ZM458.699 309.63C425.075 309.63 402.5 317.557 402.5 324.948C402.5 332.339 425.075 340.267 458.699 340.267C492.322 340.267 514.916 332.339 514.916 324.948C514.916 317.557 492.322 309.669 458.699 309.669V309.63Z" fill="#212121"/>
<path d="M506.566 290.903V314.531C506.566 323.454 481.023 330.711 449.506 330.711C417.989 330.711 392.446 323.454 392.446 314.531V290.903H506.566Z" fill="white"/>
<path d="M449.506 331.669C416.955 331.669 391.489 324.125 391.489 314.436V290.904C391.494 290.651 391.596 290.411 391.775 290.232C391.953 290.054 392.194 289.951 392.446 289.946H506.566C506.82 289.946 507.063 290.047 507.243 290.227C507.422 290.406 507.523 290.65 507.523 290.904V314.532C507.523 324.125 482.038 331.669 449.506 331.669ZM393.404 291.861V314.532C393.404 321.885 415.959 329.85 449.506 329.85C483.053 329.85 505.609 321.98 505.609 314.532V291.861H393.404Z" fill="#212121"/>
<path d="M449.506 307.084C481.019 307.084 506.566 299.84 506.566 290.904C506.566 281.968 481.019 274.724 449.506 274.724C417.992 274.724 392.446 281.968 392.446 290.904C392.446 299.84 417.992 307.084 449.506 307.084Z" fill="#212121"/>
<path d="M449.5 307.944C417.045 307.944 391.598 300.458 391.598 290.903C391.598 281.348 417.045 273.881 449.5 273.881C481.955 273.881 507.402 281.368 507.402 290.903C507.402 300.439 481.974 307.944 449.5 307.944ZM449.5 275.566C415.877 275.566 393.302 283.512 393.302 290.884C393.302 298.256 415.877 306.202 449.5 306.202C483.123 306.202 505.717 298.275 505.717 290.884C505.717 283.493 483.123 275.566 449.5 275.566Z" fill="#212121"/>
<path d="M515.753 256.684V280.293C515.753 289.235 490.21 296.472 458.693 296.472C427.176 296.472 401.652 289.235 401.652 280.293V256.684H515.753Z" fill="white"/>
<path d="M458.692 297.431C426.142 297.431 400.694 289.906 400.694 280.294V256.685C400.694 256.431 400.795 256.187 400.975 256.008C401.154 255.828 401.398 255.727 401.652 255.727H515.752C516.006 255.727 516.25 255.828 516.429 256.008C516.609 256.187 516.71 256.431 516.71 256.685V280.294C516.71 289.906 491.224 297.431 458.692 297.431ZM402.609 257.738V280.389C402.609 287.742 425.146 295.612 458.692 295.612C492.239 295.612 514.795 287.742 514.795 280.389V257.738H402.609Z" fill="#212121"/>
<path d="M458.7 272.865C490.213 272.865 515.76 265.621 515.76 256.685C515.76 247.749 490.213 240.505 458.7 240.505C427.187 240.505 401.64 247.749 401.64 256.685C401.64 265.621 427.187 272.865 458.7 272.865Z" fill="#212121"/>
<path d="M458.699 273.708C426.243 273.708 400.815 266.241 400.815 256.686C400.815 247.131 426.243 239.664 458.699 239.664C491.154 239.664 516.601 247.151 516.601 256.686C516.601 266.222 491.173 273.708 458.699 273.708ZM458.699 241.349C425.075 241.349 402.5 249.276 402.5 256.667C402.5 264.058 425.075 271.985 458.699 271.985C492.322 271.985 514.916 264.058 514.916 256.667C514.916 249.276 492.322 241.349 458.699 241.349Z" fill="#212121"/>
<path d="M497.378 228.709V252.318C497.378 261.241 471.835 268.498 440.318 268.498C408.801 268.498 383.258 261.241 383.258 252.318V228.709H497.378Z" fill="white"/>
<path d="M440.388 269.456C407.837 269.456 382.371 261.931 382.371 252.223V228.71C382.371 228.456 382.472 228.212 382.652 228.033C382.831 227.853 383.075 227.752 383.328 227.752H497.448C497.702 227.752 497.946 227.853 498.125 228.033C498.305 228.212 498.406 228.456 498.406 228.71V252.319C498.329 261.931 472.939 269.456 440.388 269.456ZM384.286 229.667V252.319C384.286 259.672 406.823 267.637 440.388 267.637C473.954 267.637 496.491 259.767 496.491 252.319V229.667H384.286Z" fill="#212121"/>
<path d="M440.318 244.893C471.831 244.893 497.378 237.649 497.378 228.713C497.378 219.777 471.831 212.533 440.318 212.533C408.804 212.533 383.258 219.777 383.258 228.713C383.258 237.649 408.804 244.893 440.318 244.893Z" fill="#212121"/>
<path d="M440.395 245.731C407.844 245.731 382.492 238.244 382.492 228.689C382.492 219.135 407.844 211.667 440.395 211.667C472.946 211.667 498.297 219.154 498.297 228.689C498.297 238.225 472.792 245.731 440.395 245.731ZM440.395 213.352C406.771 213.352 384.177 221.298 384.177 228.67C384.177 236.042 406.771 243.988 440.395 243.988C474.018 243.988 496.612 236.042 496.612 228.67C496.612 221.298 473.941 213.352 440.395 213.352Z" fill="#212121"/>
<path d="M509.873 200.718V224.327C509.873 233.269 484.33 240.507 452.832 240.507C421.335 240.507 395.772 233.269 395.772 224.327V200.718H509.873Z" fill="white"/>
<path d="M452.833 241.465C420.282 241.465 394.816 233.94 394.816 224.328V200.719C394.816 200.465 394.917 200.221 395.096 200.042C395.276 199.862 395.519 199.761 395.773 199.761H509.874C510.128 199.761 510.371 199.862 510.551 200.042C510.73 200.221 510.831 200.465 510.831 200.719V224.328C510.831 233.94 485.365 241.465 452.833 241.465ZM396.731 201.676V224.328C396.731 231.68 419.267 239.55 452.833 239.55C486.399 239.55 508.917 231.68 508.917 224.328V201.676H396.731Z" fill="#212121"/>
<path d="M452.832 216.896C484.346 216.896 509.892 209.652 509.892 200.716C509.892 191.781 484.346 184.537 452.832 184.537C421.319 184.537 395.772 191.781 395.772 200.716C395.772 209.652 421.319 216.896 452.832 216.896Z" fill="#212121"/>
<path d="M452.839 217.74C420.288 217.74 394.937 210.272 394.937 200.718C394.937 191.163 420.365 183.695 452.839 183.695C485.313 183.695 510.741 191.163 510.741 200.718C510.741 210.272 485.294 217.74 452.839 217.74ZM452.839 185.38C419.216 185.38 396.622 193.307 396.622 200.698C396.622 208.089 419.216 216.017 452.839 216.017C486.462 216.017 509.037 208.089 509.037 200.698C509.037 193.307 486.462 185.38 452.839 185.38Z" fill="#212121"/>
<path d="M511.886 169.01V192.638C511.886 201.58 486.343 208.817 454.826 208.817C423.309 208.817 397.785 201.58 397.785 192.638V169.01H511.886Z" fill="white"/>
<path d="M454.827 209.756C422.276 209.756 396.829 202.231 396.829 192.619V169.01C396.829 168.756 396.929 168.513 397.109 168.333C397.289 168.154 397.532 168.053 397.786 168.053H511.887C512.141 168.053 512.384 168.154 512.564 168.333C512.743 168.513 512.844 168.756 512.844 169.01V192.638C512.844 202.212 487.359 209.756 454.827 209.756ZM398.743 169.967V192.638C398.743 199.991 421.28 207.861 454.827 207.861C488.373 207.861 510.929 199.991 510.929 192.638V169.967H398.743Z" fill="#212121"/>
<path d="M454.829 185.19C486.342 185.19 511.889 177.946 511.889 169.011C511.889 160.075 486.342 152.831 454.829 152.831C423.316 152.831 397.769 160.075 397.769 169.011C397.769 177.946 423.316 185.19 454.829 185.19Z" fill="#212121"/>
<path d="M454.832 186.031C422.282 186.031 396.949 178.563 396.949 169.009C396.949 159.454 422.377 151.987 454.832 151.987C487.288 151.987 512.735 159.473 512.735 169.009C512.735 178.544 487.307 186.031 454.832 186.031ZM454.832 153.672C421.209 153.672 398.634 161.599 398.634 168.99C398.634 176.381 421.209 184.308 454.832 184.308C488.456 184.308 511.05 176.381 511.05 168.99C511.05 161.599 488.456 153.672 454.832 153.672Z" fill="#212121"/>
<path d="M500.69 138.104V161.713C500.69 170.655 475.147 177.893 443.63 177.893C412.113 177.893 386.589 170.655 386.589 161.713V138.104H500.69Z" fill="white"/>
<path d="M443.63 178.85C411.079 178.85 385.632 171.325 385.632 161.617V138.104C385.632 137.85 385.733 137.607 385.912 137.427C386.092 137.248 386.335 137.147 386.589 137.147H500.69C500.944 137.147 501.187 137.248 501.367 137.427C501.546 137.607 501.647 137.85 501.647 138.104V161.713C501.666 171.325 476.162 178.85 443.63 178.85ZM387.547 139.023V161.675C387.547 169.028 410.083 176.993 443.63 176.993C477.177 176.993 499.732 169.123 499.732 161.675V139.023H387.547Z" fill="#212121"/>
<path d="M443.627 154.284C475.14 154.284 500.687 147.04 500.687 138.105C500.687 129.169 475.14 121.925 443.627 121.925C412.113 121.925 386.567 129.169 386.567 138.105C386.567 147.04 412.113 154.284 443.627 154.284Z" fill="#212121"/>
<path d="M443.625 155.128C411.17 155.128 385.742 147.66 385.742 138.106C385.742 128.551 411.17 121.083 443.625 121.083C476.081 121.083 501.528 128.57 501.528 138.106C501.528 147.641 476.1 155.128 443.625 155.128ZM443.625 122.768C410.002 122.768 387.427 130.696 387.427 138.087C387.427 145.478 410.002 153.405 443.625 153.405C477.249 153.405 499.843 145.478 499.843 138.087C499.843 130.696 477.268 122.768 443.625 122.768Z" fill="#212121"/>
<path d="M515.753 106.473V130.024C515.753 138.947 490.21 146.204 458.693 146.204C427.176 146.204 401.652 138.947 401.652 130.024V106.473H515.753Z" fill="white"/>
<path d="M458.692 147.161C426.142 147.161 400.694 139.636 400.694 129.928V106.473C400.694 106.219 400.795 105.975 400.975 105.796C401.154 105.616 401.398 105.515 401.652 105.515H515.752C516.006 105.515 516.25 105.616 516.429 105.796C516.609 105.975 516.71 106.219 516.71 106.473V130.024C516.71 139.636 491.224 147.161 458.692 147.161ZM402.609 107.372V130.024C402.609 137.377 425.146 145.342 458.692 145.342C492.239 145.342 514.795 137.473 514.795 130.024V107.372H402.609Z" fill="#212121"/>
<path d="M458.7 122.595C490.213 122.595 515.76 115.351 515.76 106.415C515.76 97.4793 490.213 90.2354 458.7 90.2354C427.187 90.2354 401.64 97.4793 401.64 106.415C401.64 115.351 427.187 122.595 458.7 122.595Z" fill="white"/>
<path d="M458.692 123.552C426.142 123.552 400.694 116.008 400.694 106.319C400.694 96.6303 426.161 89.0862 458.692 89.0862C491.224 89.0862 516.71 96.6303 516.71 106.319C516.71 116.008 491.224 123.552 458.692 123.552ZM458.692 91.1733C425.146 91.1733 402.609 99.043 402.609 106.491C402.609 113.94 425.146 121.809 458.692 121.809C492.239 121.809 514.795 113.94 514.795 106.491C514.795 99.043 492.258 91.1541 458.692 91.1541V91.1733Z" fill="#212121"/>
<path d="M458.698 117.176C435.031 117.176 409.891 113.346 409.891 106.415C409.891 99.4834 435.031 95.6348 458.698 95.6348C482.364 95.6348 507.524 99.4643 507.524 106.415C507.524 113.365 482.364 117.176 458.698 117.176ZM458.698 97.5495C431.068 97.5495 411.805 102.222 411.805 106.415C411.805 110.608 431.068 115.261 458.698 115.261C486.328 115.261 505.61 110.589 505.61 106.415C505.61 102.241 486.347 97.5495 458.698 97.5495Z" fill="#D1D3D4"/>
</svg>
