<svg width="48" height="49" viewBox="0 0 48 49" fill="none" xmlns="http://www.w3.org/2000/svg">
<path d="M19.8248 35.7514V29.5703C19.8248 28.9555 19.5806 28.3659 19.1459 27.9312C18.7112 27.4965 18.1216 27.2523 17.5069 27.2523C16.8921 27.2523 16.3026 27.4965 15.8679 27.9312C15.4332 28.3659 15.189 28.9555 15.189 29.5703V35.7514C14.6073 36.1914 14.1621 36.787 13.9048 37.4693C13.6474 38.1517 13.5885 38.893 13.7348 39.6074C13.8811 40.3219 14.2266 40.9803 14.7314 41.5067C15.2362 42.033 15.8797 42.4057 16.5874 42.5816C16.8883 42.6571 17.1968 42.6985 17.5069 42.7052C18.3177 42.7052 19.108 42.4501 19.7658 41.976C20.4235 41.5019 20.9155 40.8329 21.1719 40.0637C21.4283 39.2944 21.4361 38.4641 21.1944 37.6901C20.9526 36.9162 20.4735 36.2379 19.8248 35.7514ZM18.944 40.6423C18.6963 40.8529 18.407 41.009 18.095 41.1005C17.783 41.192 17.4552 41.2168 17.133 41.1734C16.8108 41.13 16.5013 41.0192 16.2246 40.8483C15.948 40.6775 15.7104 40.4503 15.5273 40.1817C15.3442 39.913 15.2196 39.6088 15.1618 39.2888C15.1039 38.9689 15.114 38.6403 15.1914 38.3245C15.2688 38.0087 15.4117 37.7127 15.611 37.4558C15.8102 37.1988 16.0613 36.9867 16.3479 36.8331C16.4658 36.7651 16.5637 36.667 16.6315 36.549C16.6993 36.4309 16.7348 36.2971 16.7342 36.1609V29.5703C16.7342 29.3654 16.8157 29.1688 16.9606 29.0239C17.1054 28.879 17.302 28.7976 17.5069 28.7976C17.7118 28.7976 17.9083 28.879 18.0532 29.0239C18.1981 29.1688 18.2795 29.3654 18.2795 29.5703V36.1764C18.279 36.3125 18.3144 36.4464 18.3823 36.5644C18.4501 36.6825 18.548 36.7805 18.6659 36.8486C18.9902 37.0385 19.2635 37.3045 19.4622 37.6235C19.6609 37.9426 19.779 38.3052 19.8064 38.68C19.8338 39.0549 19.7696 39.4308 19.6193 39.7753C19.4691 40.1199 19.2373 40.4227 18.944 40.6577V40.6423Z" fill="#212121"/>
<path d="M47.0365 29.5703L44.479 29.0062C43.2004 28.7131 41.994 28.1651 40.932 27.3951C39.87 26.6252 38.9741 25.649 38.2979 24.5249C38.2294 24.4096 38.1322 24.3141 38.0157 24.2478C37.8992 24.1814 37.7674 24.1465 37.6334 24.1465C37.4993 24.1465 37.3676 24.1814 37.2511 24.2478C37.1346 24.3141 37.0373 24.4096 36.9689 24.5249C36.0106 26.1084 34.6192 27.3846 32.9589 28.2027V24.9344C32.9585 24.183 32.739 23.4481 32.3273 22.8196C31.9156 22.1911 31.3296 21.6962 30.641 21.3957V14.1174C30.641 10.6338 29.2571 7.29284 26.7938 4.82956C24.3305 2.36628 20.9896 0.982422 17.506 0.982422C14.0224 0.982422 10.6815 2.36628 8.21818 4.82956C5.75489 7.29284 4.37104 10.6338 4.37104 14.1174V21.3957C3.68241 21.6962 3.09636 22.1911 2.68467 22.8196C2.27297 23.4481 2.05349 24.183 2.0531 24.9344V27.2523H1.28046C1.07554 27.2523 0.879014 27.3337 0.734115 27.4786C0.589216 27.6235 0.507813 27.8201 0.507812 28.025V41.9326C0.507813 42.1375 0.589216 42.334 0.734115 42.4789C0.879014 42.6238 1.07554 42.7052 1.28046 42.7052H2.0531V45.0232C2.0531 46.0477 2.46012 47.0304 3.18461 47.7549C3.90911 48.4794 4.89173 48.8864 5.91632 48.8864H29.0957C30.1203 48.8864 31.1029 48.4794 31.8274 47.7549C32.5519 47.0304 32.9589 46.0477 32.9589 45.0232V44.9227C34.0186 46.1637 35.2104 47.2855 36.513 48.2683L37.1312 48.7318C37.2649 48.8322 37.4276 48.8864 37.5948 48.8864C37.7619 48.8864 37.9246 48.8322 38.0583 48.7318L38.6765 48.2683C41.4526 46.1749 43.7065 43.4673 45.2614 40.3574C46.8164 37.2475 47.6302 33.8199 47.6391 30.3429C47.6435 30.1643 47.5858 29.9897 47.4759 29.8488C47.3661 29.708 47.2108 29.6095 47.0365 29.5703ZM5.91632 14.1174C5.91632 11.0436 7.13738 8.09573 9.31086 5.92225C11.4843 3.74876 14.4322 2.52771 17.506 2.52771C20.5798 2.52771 23.5276 3.74876 25.7011 5.92225C27.8746 8.09573 29.0957 11.0436 29.0957 14.1174V21.0712H26.0051V14.1174C26.0051 11.8633 25.1096 9.7015 23.5158 8.10761C21.9219 6.51373 19.7601 5.61829 17.506 5.61829C15.2519 5.61829 13.0901 6.51373 11.4962 8.10761C9.90234 9.7015 9.0069 11.8633 9.0069 14.1174V21.0712H5.91632V14.1174ZM24.4598 21.0712H10.5522V14.1174C10.5522 12.2731 11.2848 10.5044 12.5889 9.2003C13.893 7.89621 15.6617 7.16358 17.506 7.16358C19.3503 7.16358 21.119 7.89621 22.4231 9.2003C23.7272 10.5044 24.4598 12.2731 24.4598 14.1174V21.0712ZM9.77955 28.7976V31.8882H2.0531V28.7976H9.77955ZM2.0531 41.1599V38.0694H9.77955V41.1599H2.0531ZM9.77955 36.5241H2.0531V33.4335H9.77955V36.5241ZM31.4136 45.0232C31.4136 45.6379 31.1694 46.2275 30.7347 46.6622C30.3 47.0969 29.7104 47.3411 29.0957 47.3411H5.91632C5.30157 47.3411 4.71199 47.0969 4.2773 46.6622C3.8426 46.2275 3.59839 45.6379 3.59839 45.0232V42.7052H10.5522C10.7571 42.7052 10.9536 42.6238 11.0985 42.4789C11.2434 42.334 11.3248 42.1375 11.3248 41.9326V28.025C11.3248 27.8201 11.2434 27.6235 11.0985 27.4786C10.9536 27.3337 10.7571 27.2523 10.5522 27.2523H3.59839V24.9344C3.59839 24.3196 3.8426 23.7301 4.2773 23.2954C4.71199 22.8607 5.30157 22.6165 5.91632 22.6165H29.0957C29.7104 22.6165 30.3 22.8607 30.7347 23.2954C31.1694 23.7301 31.4136 24.3196 31.4136 24.9344V28.7976C31.1818 28.8672 30.95 28.9367 30.7105 28.9908L28.153 29.5703C27.9787 29.6095 27.8234 29.708 27.7136 29.8488C27.6037 29.9897 27.546 30.1643 27.5504 30.3429C27.563 34.8164 28.9079 39.1848 31.4136 42.8907V45.0232ZM37.7493 47.032L37.5948 47.1479L37.4402 47.032C34.9373 45.1466 32.8885 42.7244 31.4445 39.9433C30.0005 37.1622 29.1979 34.093 29.0957 30.961L31.035 30.5283C33.6517 29.9469 35.9766 28.4544 37.5948 26.3174C39.211 28.4529 41.5329 29.9452 44.1468 30.5283L46.0938 30.961C45.9916 34.093 45.189 37.1622 43.745 39.9433C42.301 42.7244 40.2522 45.1466 37.7493 47.032Z" fill="#212121"/>
<path d="M42.1449 31.463L40.7696 30.7677L40.2442 31.8107C39.0516 31.1058 37.6362 30.8789 36.2829 31.1757C34.9297 31.4726 33.7393 32.2711 32.9512 33.4105C32.1632 34.55 31.8361 35.9456 32.0359 37.3166C32.2357 38.6875 32.9475 39.9317 34.028 40.7989C35.1084 41.666 36.4773 42.0915 37.859 41.9898C39.2406 41.8881 40.5324 41.2666 41.4742 40.2506C42.416 39.2346 42.9379 37.8995 42.9347 36.5141C42.9316 35.1287 42.4037 33.796 41.4573 32.7843L42.1449 31.463ZM41.4573 36.5239C41.466 37.3865 41.1886 38.2278 40.6685 38.9161C40.1483 39.6044 39.4147 40.1009 38.5824 40.3279C37.7501 40.5549 36.866 40.4997 36.0684 40.1708C35.2708 39.842 34.6046 39.2581 34.1742 38.5104C33.7437 37.7628 33.5732 36.8935 33.6892 36.0386C33.8053 35.1838 34.2014 34.3914 34.8156 33.7856C35.4298 33.1798 36.2275 32.7946 37.0839 32.6903C37.9403 32.586 38.8072 32.7685 39.5488 33.2092L37.4627 37.3815L35.9174 35.2876L34.6812 36.2148L36.9991 39.3054C37.0711 39.4013 37.1644 39.4792 37.2717 39.5329C37.379 39.5865 37.4973 39.6144 37.6172 39.6144H37.6867C37.8174 39.6019 37.9427 39.5564 38.0508 39.482C38.159 39.4077 38.2464 39.307 38.3049 39.1895L40.7542 34.2909C41.2176 34.9427 41.4636 35.7241 41.4573 36.5239Z" fill="#212121"/>
</svg>
